<svg width="65" height="45" viewBox="0 0 65 45" fill="none" xmlns="http://www.w3.org/2000/svg">
<path d="M23.0005 0.0715714C22.9847 0.115433 22.9373 0.207535 22.9004 0.282093C22.8635 0.352264 22.7792 0.532085 22.7107 0.676819C22.6421 0.821548 22.5684 0.948738 22.5525 0.961895C22.5315 0.975052 22.4998 1.04961 22.4788 1.12417C22.4629 1.20312 22.4261 1.26891 22.3997 1.26891C22.3733 1.26891 22.3417 1.33031 22.3206 1.40048C22.2996 1.47504 22.231 1.61977 22.1625 1.72065C22.0993 1.8259 22.0255 1.97502 22.0044 2.04958C21.9886 2.12852 21.9517 2.18993 21.9254 2.18993C21.899 2.18993 21.8621 2.25571 21.8463 2.33027C21.8252 2.40922 21.7936 2.48378 21.7725 2.49694C21.7514 2.51009 21.6671 2.66798 21.5828 2.8478C21.4984 3.02762 21.4141 3.19428 21.393 3.2206C21.372 3.24253 21.3403 3.33024 21.3192 3.4048C21.3034 3.48375 21.2613 3.54953 21.2402 3.54953C21.2138 3.54953 21.1769 3.61971 21.1559 3.70304C21.14 3.78637 21.1032 3.85654 21.0768 3.85654C21.0504 3.85654 21.0294 3.88286 21.0294 3.90917C21.0241 3.93987 20.9819 4.04513 20.924 4.14162C20.866 4.23811 20.8238 4.34337 20.8185 4.36969C20.8185 4.40039 20.7975 4.4267 20.7658 4.4267C20.7395 4.4267 20.7131 4.4574 20.7131 4.49687C20.7131 4.53635 20.6657 4.65038 20.613 4.75125C20.5603 4.85213 20.4707 5.01879 20.418 5.12843C20.3653 5.23808 20.281 5.40913 20.2282 5.51C20.1755 5.61087 20.1334 5.71613 20.1334 5.73806C20.1334 5.76438 20.1123 5.78631 20.0859 5.78631C20.0596 5.78631 20.0227 5.85648 20.0069 5.93981C19.9858 6.02314 19.9489 6.09332 19.9226 6.09332C19.9015 6.09332 19.8646 6.15472 19.8435 6.22489C19.8224 6.29945 19.7539 6.44418 19.6854 6.54506C19.6221 6.65031 19.5484 6.79943 19.5273 6.87399C19.5115 6.95294 19.4746 7.01434 19.4482 7.01434C19.4271 7.01434 19.3797 7.11083 19.3428 7.23363C19.3059 7.35205 19.2585 7.45292 19.2321 7.45292C19.211 7.45292 19.1741 7.52309 19.1531 7.60643C19.1373 7.68976 19.1004 7.75993 19.074 7.75993C19.0477 7.75993 19.0266 7.78624 19.0266 7.81256C19.0266 7.84326 18.9949 7.92221 18.9528 7.98799C18.9106 8.05378 18.8632 8.16343 18.8421 8.23798C18.821 8.31255 18.7841 8.37395 18.763 8.37395C18.7367 8.37395 18.6998 8.44412 18.6787 8.52745C18.6629 8.61078 18.626 8.68095 18.5997 8.68095C18.5733 8.68095 18.5522 8.70288 18.5522 8.7292C18.5522 8.76867 18.4837 8.90902 18.2623 9.3169C18.2255 9.38707 18.1727 9.5011 18.1569 9.56689C18.1359 9.63707 18.099 9.68969 18.0779 9.68969C18.0515 9.68969 18.0199 9.76864 17.9988 9.86513C17.9777 9.96162 17.9408 10.0406 17.9145 10.0406C17.8881 10.0406 17.8671 10.0669 17.8671 10.0932C17.8618 10.1239 17.8196 10.2292 17.7616 10.3256C17.7037 10.4221 17.6615 10.5274 17.6562 10.5537C17.6562 10.5844 17.6352 10.6107 17.6088 10.6107C17.5824 10.6107 17.5456 10.6809 17.5297 10.7642C17.5087 10.8476 17.4718 10.9177 17.4507 10.9177C17.4243 10.9177 17.3874 10.9704 17.3664 11.0361C17.3505 11.1063 17.2768 11.2554 17.2082 11.3782C17.145 11.4967 17.0554 11.6809 17.0185 11.7817C16.9869 11.887 16.9394 11.9703 16.9184 11.9703C16.8973 11.9703 16.8604 12.0405 16.8446 12.1238C16.8235 12.2072 16.7866 12.2773 16.7602 12.2773C16.7339 12.2773 16.697 12.3475 16.6759 12.4308C16.6601 12.5142 16.6232 12.5843 16.5969 12.5843C16.5705 12.5843 16.5494 12.6063 16.5494 12.6326C16.5494 12.6808 16.4704 12.8387 16.2806 13.1808C16.2279 13.2817 16.1805 13.3957 16.1805 13.4352C16.1805 13.4747 16.1594 13.5054 16.1278 13.5054C16.1014 13.5054 16.0751 13.5317 16.0751 13.558C16.0751 13.5887 16.0435 13.6676 16.0013 13.7334C15.9591 13.7948 15.9012 13.922 15.8643 14.0097C15.8274 14.0975 15.7694 14.2246 15.7272 14.286C15.6851 14.3518 15.6534 14.4308 15.6534 14.4571C15.6534 14.4878 15.6324 14.5141 15.606 14.5141C15.5797 14.5141 15.5428 14.5931 15.5217 14.6895C15.5006 14.786 15.4637 14.865 15.4373 14.865C15.411 14.865 15.3899 14.8913 15.3899 14.9176C15.3846 14.9483 15.3425 15.0536 15.2845 15.1501C15.2265 15.2465 15.1844 15.3518 15.1791 15.3781C15.1791 15.4088 15.158 15.4351 15.1317 15.4351C15.1053 15.4351 15.0684 15.5053 15.0526 15.5886C15.0315 15.672 14.9946 15.7421 14.9683 15.7421C14.9472 15.7421 14.9103 15.7992 14.8892 15.8693C14.8734 15.9395 14.8102 16.0711 14.7522 16.1632C14.6995 16.2553 14.652 16.3781 14.652 16.4307C14.652 16.4877 14.631 16.5316 14.6046 16.5316C14.5783 16.5316 14.5414 16.5886 14.5203 16.6632C14.4992 16.7377 14.4676 16.7947 14.4412 16.7947C14.4201 16.7947 14.3832 16.8649 14.3674 16.9482C14.3463 17.0316 14.3095 17.1017 14.2831 17.1017C14.2568 17.1017 14.2199 17.1719 14.1988 17.2552C14.183 17.3386 14.1461 17.4088 14.125 17.4088C14.1039 17.4088 14.067 17.4614 14.0459 17.5272C14.0301 17.593 13.9458 17.7684 13.8562 17.9175C13.7719 18.071 13.7033 18.2245 13.7033 18.264C13.7033 18.2991 13.6823 18.3298 13.6559 18.3298C13.6296 18.3298 13.5769 18.4263 13.54 18.5491C13.5031 18.6675 13.4556 18.7684 13.4346 18.7684C13.4082 18.7684 13.3766 18.8385 13.3555 18.9219C13.3397 19.0052 13.3028 19.0754 13.2764 19.0754C13.2501 19.0754 13.229 19.1017 13.229 19.128C13.229 19.1587 13.1974 19.2376 13.1552 19.3034C13.113 19.3692 13.0656 19.4789 13.0445 19.5534C13.0234 19.628 12.9866 19.6894 12.9602 19.6894C12.9339 19.6894 12.9128 19.7113 12.9128 19.7376C12.9128 19.7596 12.8653 19.8736 12.8021 19.9876C12.7441 20.1017 12.6598 20.2639 12.6176 20.3473C12.5755 20.4306 12.5069 20.549 12.47 20.6104C12.4279 20.6718 12.3804 20.7858 12.3594 20.8604C12.3436 20.9393 12.3014 21.0051 12.275 21.0051C12.2487 21.0051 12.2118 21.0841 12.196 21.1806C12.1749 21.2771 12.1433 21.356 12.1222 21.356C12.0958 21.356 12.0642 21.413 12.0431 21.4876C12.0221 21.5577 11.9904 21.6191 11.9641 21.6191C11.943 21.6191 11.9061 21.6893 11.8903 21.7727C11.8692 21.856 11.8323 21.9262 11.806 21.9262C11.7849 21.9262 11.7427 21.9919 11.7269 22.0665C11.7058 22.1454 11.6742 22.22 11.6531 22.2332C11.6057 22.2639 11.2789 22.9261 11.2157 23.1191C11.184 23.2112 11.1419 23.2858 11.1155 23.2858C11.0944 23.2858 11.0575 23.3559 11.0365 23.4393C11.0207 23.5226 10.9838 23.5928 10.9574 23.5928C10.9363 23.5928 10.8994 23.6629 10.8783 23.7463C10.8625 23.8296 10.8256 23.8998 10.7993 23.8998C10.7729 23.8998 10.7519 23.9261 10.7519 23.9524C10.7519 23.9831 10.7202 24.0621 10.6781 24.1278C10.6359 24.1936 10.5885 24.3033 10.5674 24.3778C10.5463 24.4524 10.5094 24.5138 10.4883 24.5138C10.462 24.5138 10.4251 24.584 10.404 24.6673C10.3882 24.7506 10.3513 24.8208 10.3249 24.8208C10.2986 24.8208 10.2775 24.8427 10.2775 24.869C10.2775 24.891 10.2301 24.9962 10.1774 25.0971C10.1194 25.2024 10.0561 25.3383 10.0403 25.4041C10.0193 25.4699 9.98236 25.5225 9.96128 25.5225C9.9402 25.5225 9.9033 25.5927 9.88749 25.676C9.86641 25.7594 9.82952 25.8295 9.80316 25.8295C9.78208 25.8295 9.74519 25.9085 9.72411 26.005C9.70302 26.1015 9.66613 26.1804 9.64505 26.1804C9.6187 26.1804 9.58707 26.2374 9.56599 26.312C9.54491 26.3822 9.51328 26.4436 9.48693 26.4436C9.46585 26.4436 9.42896 26.5137 9.41315 26.5971C9.39206 26.6804 9.35517 26.7506 9.32882 26.7506C9.30773 26.7506 9.26557 26.8164 9.24976 26.8909C9.22868 26.9699 9.19705 27.0444 9.17597 27.0576C9.15489 27.0707 9.07583 27.2286 8.9915 27.4084C8.91245 27.5883 8.81231 27.7988 8.77014 27.8777C8.72798 27.9523 8.69635 28.0356 8.69635 28.0619C8.69635 28.0882 8.67527 28.1102 8.64892 28.1102C8.62257 28.1102 8.58567 28.1803 8.56986 28.2637C8.54878 28.347 8.51189 28.4172 8.48553 28.4172C8.45918 28.4172 8.42229 28.4874 8.40121 28.5707C8.38539 28.654 8.3485 28.7242 8.32215 28.7242C8.2958 28.7242 8.27471 28.7505 8.27471 28.7768C8.27471 28.8075 8.24309 28.8865 8.20093 28.9523C8.15876 29.018 8.11133 29.1277 8.09025 29.2022C8.06916 29.2768 8.03227 29.3382 8.01119 29.3382C7.98483 29.3382 7.94794 29.4084 7.92686 29.4917C7.91105 29.575 7.87415 29.6452 7.85307 29.6452C7.82672 29.6452 7.77928 29.7461 7.74239 29.8645C7.7055 29.9873 7.65806 30.0838 7.63698 30.0838C7.6159 30.0838 7.58428 30.1408 7.56319 30.2154C7.54211 30.2855 7.51049 30.3469 7.48414 30.3469C7.46305 30.3469 7.42616 30.4171 7.41035 30.5005C7.38927 30.5838 7.35237 30.654 7.32602 30.654C7.30494 30.654 7.26804 30.7329 7.24696 30.8294C7.22588 30.9259 7.18899 31.0048 7.16263 31.0048C7.13628 31.0048 7.1152 31.0311 7.1152 31.0575C7.10993 31.0882 7.06776 31.1934 7.00979 31.2899C6.95181 31.3864 6.90965 31.4916 6.90438 31.518C6.90438 31.5487 6.8833 31.575 6.85694 31.575C6.83059 31.575 6.78843 31.6408 6.76734 31.7153C6.75153 31.7943 6.7041 31.8995 6.66721 31.9478C6.63031 31.996 6.58288 32.1013 6.56179 32.1802C6.54071 32.2548 6.50909 32.3206 6.48274 32.3206C6.45638 32.3206 6.42476 32.382 6.40368 32.4565C6.3826 32.5311 6.33516 32.6407 6.293 32.7065C6.25083 32.7723 6.21921 32.8513 6.21921 32.8776C6.21921 32.9083 6.19813 32.9346 6.17178 32.9346C6.14542 32.9346 6.10853 33.0048 6.09272 33.0881C6.07164 33.1714 6.03474 33.2416 6.00839 33.2416C5.98204 33.2416 5.94514 33.3118 5.92406 33.3951C5.90825 33.4784 5.87136 33.5486 5.85028 33.5486C5.82392 33.5486 5.7923 33.6056 5.77122 33.6802C5.75013 33.7503 5.71324 33.8205 5.68689 33.8337C5.66054 33.8512 5.63945 33.8951 5.63945 33.9346C5.63945 33.9784 5.59729 34.0793 5.53931 34.1626C5.48661 34.2459 5.42336 34.3819 5.40755 34.4609C5.38647 34.5354 5.34431 34.6012 5.32322 34.6012C5.29687 34.6012 5.25998 34.6714 5.23889 34.7547C5.22308 34.838 5.18619 34.9082 5.15984 34.9082C5.13348 34.9082 5.1124 34.9301 5.1124 34.9565C5.1124 34.9959 5.03334 35.1538 4.81725 35.5529C4.77509 35.6275 4.74347 35.7196 4.74347 35.7591C4.74347 35.7985 4.72238 35.8292 4.69076 35.8292C4.66441 35.8292 4.63806 35.8512 4.63806 35.8775C4.63806 35.9257 4.46413 36.2678 4.35345 36.4432C4.31128 36.5047 4.26385 36.6187 4.24277 36.6976C4.22696 36.7722 4.19006 36.838 4.16371 36.838C4.14263 36.838 4.10573 36.9081 4.08992 36.9915C4.06884 37.0748 4.03195 37.145 4.00559 37.145C3.98451 37.145 3.94762 37.2064 3.92654 37.2809C3.90545 37.3555 3.85802 37.4651 3.81586 37.5309C3.77369 37.5967 3.74207 37.6757 3.74207 37.702C3.74207 37.7327 3.72099 37.759 3.69463 37.759C3.66828 37.759 3.63139 37.8292 3.61558 37.9125C3.59449 37.9958 3.5576 38.066 3.53125 38.066C3.51016 38.066 3.468 38.1318 3.45219 38.2107C3.43111 38.2853 3.39421 38.3599 3.37313 38.373C3.35732 38.3862 3.27299 38.5528 3.18866 38.7458C3.10434 38.9388 3.02001 39.1054 2.99892 39.1186C2.98311 39.1318 2.94622 39.2063 2.92514 39.2809C2.90933 39.3598 2.86716 39.4256 2.84608 39.4256C2.81973 39.4256 2.78283 39.4958 2.76175 39.5791C2.74594 39.6624 2.70905 39.7326 2.68269 39.7326C2.65634 39.7326 2.63526 39.7545 2.63526 39.7809C2.63526 39.8203 2.5562 39.9782 2.34011 40.3773C2.29795 40.4519 2.26632 40.544 2.26632 40.5791C2.26632 40.6186 2.25051 40.6536 2.22943 40.6624C2.20308 40.6668 2.12929 40.794 2.06077 40.9387C1.99226 41.0835 1.89212 41.2852 1.83941 41.3861C1.78144 41.487 1.73927 41.5922 1.73927 41.6141C1.73927 41.6405 1.71819 41.6624 1.68657 41.6624C1.66021 41.6624 1.63386 41.6931 1.63386 41.7326C1.63386 41.772 1.58643 41.8861 1.53372 41.9869C1.34398 42.329 1.26492 42.4869 1.26492 42.5352C1.26492 42.5615 1.24384 42.5834 1.21749 42.5834C1.19114 42.5834 1.15424 42.6536 1.13843 42.7369C1.11735 42.8202 1.08046 42.8904 1.0541 42.8904C1.03302 42.8904 0.996128 42.9474 0.975046 43.0176C0.959234 43.0878 0.895988 43.2194 0.838012 43.3115C0.785307 43.4036 0.737872 43.5264 0.737872 43.579C0.737872 43.636 0.71679 43.6799 0.690438 43.6799C0.664085 43.6799 0.627192 43.7413 0.60611 43.8114C0.585028 43.886 0.553404 43.943 0.527052 43.943C0.50597 43.943 0.469076 44.0132 0.453265 44.0965C0.432182 44.1799 0.395289 44.25 0.368936 44.25C0.342584 44.25 0.30569 44.3202 0.284608 44.4035C0.268796 44.4869 0.231903 44.557 0.210821 44.557C0.184468 44.557 0.152845 44.614 0.131763 44.6886C0.110681 44.7588 0.0737872 44.829 0.0474347 44.8421C0.0210821 44.8597 0 44.8991 0 44.9342C0 44.9868 0.548134 44.9956 3.95816 44.9956C7.86888 44.9956 7.91632 44.9956 7.94267 44.9079C7.95848 44.8597 7.99011 44.8202 8.01646 44.8202C8.04281 44.8202 8.06389 44.7851 8.06389 44.7412C8.06389 44.7018 8.09552 44.614 8.13768 44.5483C8.17984 44.4825 8.22728 44.3728 8.24836 44.2983C8.26944 44.2237 8.30634 44.1623 8.32742 44.1623C8.35377 44.1623 8.39066 44.0921 8.41175 44.0088C8.42756 43.9255 8.46445 43.8553 8.48553 43.8553C8.50662 43.8553 8.54351 43.8027 8.55932 43.7325C8.5804 43.6667 8.62784 43.5527 8.67 43.4825C8.83866 43.1799 8.91245 43.022 8.9388 42.8948C8.95988 42.8202 8.9915 42.7588 9.01786 42.7588C9.03894 42.7588 9.07583 42.6887 9.09691 42.6053C9.11273 42.522 9.14962 42.4518 9.17597 42.4518C9.20232 42.4518 9.23922 42.3729 9.25503 42.2764C9.27611 42.1799 9.30773 42.101 9.33409 42.101C9.36044 42.101 9.38152 42.079 9.38152 42.0527C9.38152 42.0264 9.41315 41.9431 9.45531 41.8685C9.49747 41.7896 9.5818 41.6273 9.64505 41.5089C9.70302 41.3861 9.77681 41.2545 9.80316 41.215C9.83479 41.1712 9.85587 41.1142 9.85587 41.0922C9.85587 41.0659 9.9033 40.9607 9.95601 40.8598C10.014 40.7545 10.0772 40.6186 10.093 40.5528C10.1141 40.487 10.151 40.4344 10.1721 40.4344C10.1932 40.4344 10.2301 40.3642 10.2459 40.2808C10.267 40.1975 10.3039 40.1273 10.3302 40.1273C10.3618 40.1273 10.3829 40.0879 10.3829 40.0396C10.3829 39.9914 10.4304 39.8774 10.4883 39.7896C10.5463 39.6975 10.5937 39.5879 10.5937 39.5484C10.5937 39.5046 10.6148 39.4695 10.6464 39.4695C10.6728 39.4695 10.7097 39.3993 10.7308 39.316C10.7466 39.2326 10.7835 39.1625 10.8046 39.1625C10.8256 39.1625 10.8625 39.1098 10.8783 39.044C10.8994 38.9739 10.9469 38.8598 10.989 38.7897C11.1366 38.5221 11.2789 38.202 11.2789 38.1362C11.2789 38.0967 11.3 38.066 11.3316 38.066C11.358 38.066 11.3949 37.9958 11.4159 37.9125C11.4318 37.8292 11.4686 37.759 11.4897 37.759C11.5161 37.759 11.553 37.6976 11.5688 37.6187C11.5899 37.5397 11.6268 37.4476 11.6531 37.4081C11.6795 37.373 11.748 37.2415 11.806 37.1231C11.8692 37.0002 11.9535 36.8336 11.9957 36.7503C12.0379 36.6669 12.0958 36.5617 12.1222 36.5222C12.1538 36.4783 12.1749 36.4213 12.1749 36.3862C12.1749 36.3555 12.2171 36.2634 12.275 36.1801C12.3277 36.0968 12.391 35.9608 12.4068 35.8819C12.4279 35.8073 12.4648 35.7415 12.4911 35.7415C12.5122 35.7415 12.5491 35.6713 12.5649 35.588C12.586 35.5047 12.6229 35.4345 12.644 35.4345C12.6703 35.4345 12.7019 35.3556 12.723 35.2591C12.7388 35.1626 12.7757 35.0836 12.8074 35.0836C12.8337 35.0836 12.8706 35.0135 12.8917 34.9301C12.9075 34.8468 12.9444 34.7766 12.9707 34.7766C12.9918 34.7766 13.0287 34.7065 13.0498 34.6231C13.0656 34.5398 13.1025 34.4696 13.1289 34.4696C13.1499 34.4696 13.1868 34.3951 13.2079 34.303C13.229 34.2152 13.2606 34.1319 13.2764 34.1188C13.3291 34.0837 13.5979 33.5091 13.5979 33.439C13.5979 33.4039 13.619 33.3732 13.6506 33.3732C13.677 33.3732 13.7139 33.303 13.735 33.2197C13.7508 33.1363 13.7877 33.0662 13.8088 33.0662C13.8351 33.0662 13.872 33.0048 13.8878 32.9258C13.9089 32.8469 13.9458 32.7548 13.9721 32.7153C13.9985 32.6802 14.067 32.5486 14.125 32.4302C14.1882 32.3074 14.2726 32.1408 14.3147 32.0574C14.3569 31.9741 14.4149 31.8688 14.4412 31.8294C14.4728 31.7855 14.4939 31.7241 14.4939 31.6934C14.4939 31.6627 14.5414 31.5618 14.5941 31.4697C14.652 31.3776 14.7153 31.246 14.7311 31.1759C14.7522 31.1057 14.7891 31.0487 14.8154 31.0487C14.8418 31.0487 14.8629 31.018 14.8629 30.9829C14.8629 30.9259 15.8906 30.9171 23.7964 30.9171H32.7299V30.8118C32.7299 30.7548 32.693 30.6496 32.6509 30.5838C32.6087 30.5136 32.5718 30.4215 32.5718 30.3776C32.5718 30.3382 32.5507 30.3031 32.5244 30.3031C32.498 30.3031 32.4611 30.2154 32.4453 30.1057C32.4242 29.9961 32.3873 29.9084 32.3662 29.9084C32.3399 29.9084 32.303 29.8206 32.2872 29.711C32.2661 29.6014 32.2292 29.5136 32.2029 29.5136C32.1765 29.5136 32.1396 29.4259 32.1185 29.3163C32.1027 29.2066 32.0658 29.1189 32.0448 29.1189C32.0237 29.1189 31.9815 29.0268 31.9499 28.9084C31.8866 28.6716 31.5968 27.9479 31.5177 27.8383C31.4861 27.7944 31.465 27.7242 31.465 27.6847C31.4597 27.6409 31.4176 27.5269 31.3596 27.4304C31.3016 27.3339 31.2594 27.2111 31.2542 27.1541C31.2542 27.1014 31.2331 27.0576 31.2067 27.0576C31.1751 27.0576 31.1382 26.9699 31.1171 26.8602C31.1013 26.7506 31.0644 26.6629 31.0434 26.6629C31.017 26.6629 30.9854 26.5839 30.9643 26.4874C30.9432 26.3909 30.9063 26.312 30.88 26.312C30.8536 26.312 30.8325 26.2637 30.8325 26.2023V26.0927H24.023C20.2757 26.0927 17.2346 26.0751 17.2662 26.0576C17.2978 26.0401 17.34 25.9787 17.3611 25.9173C17.3822 25.8559 17.4191 25.7681 17.4454 25.7199C17.4718 25.6717 17.5403 25.5313 17.6035 25.4129C17.7933 25.0401 17.8723 24.891 17.9198 24.7989C17.9461 24.7506 17.9935 24.6278 18.0304 24.5226C18.0673 24.4217 18.1095 24.3384 18.1306 24.3384C18.1517 24.3384 18.1886 24.2682 18.2044 24.1849C18.2255 24.1015 18.2623 24.0314 18.2834 24.0314C18.3098 24.0314 18.3467 23.9612 18.3625 23.8778C18.3836 23.7945 18.4205 23.7243 18.4468 23.7243C18.4784 23.7243 18.4995 23.6893 18.4995 23.6454C18.5048 23.6059 18.547 23.4919 18.6049 23.3954C18.6629 23.2989 18.7051 23.1849 18.7103 23.141C18.7103 23.1016 18.7314 23.0665 18.763 23.0665C18.7894 23.0665 18.8263 22.9963 18.8474 22.913C18.8632 22.8296 18.9001 22.7595 18.9212 22.7595C18.9475 22.7595 18.9791 22.7024 19.0002 22.6323C19.016 22.5621 19.0793 22.4305 19.1373 22.3384C19.19 22.2463 19.2374 22.1235 19.2374 22.0709C19.2374 22.0139 19.2585 21.97 19.2901 21.97C19.3164 21.97 19.3533 21.8998 19.3744 21.8165C19.3902 21.7332 19.4271 21.663 19.4535 21.663C19.4746 21.663 19.5115 21.5928 19.5325 21.5095C19.5484 21.4262 19.5852 21.356 19.6116 21.356C19.6379 21.356 19.659 21.3297 19.659 21.299C19.659 21.2727 19.6907 21.1937 19.7328 21.1279C19.775 21.0621 19.8224 20.9525 19.8435 20.8779C19.8646 20.8034 19.8962 20.742 19.9226 20.742C19.9436 20.742 19.9805 20.6718 19.9963 20.5885C20.0174 20.5051 20.0543 20.435 20.0807 20.435C20.1123 20.435 20.1334 20.3999 20.1334 20.356C20.1334 20.3166 20.1755 20.2113 20.2335 20.128C20.2862 20.0446 20.3442 19.8999 20.3653 19.8078C20.3864 19.7201 20.4233 19.6455 20.4443 19.6455C20.4707 19.6455 20.5076 19.5754 20.5234 19.492C20.5445 19.4087 20.5814 19.3385 20.6077 19.3385C20.6341 19.3385 20.671 19.2683 20.6921 19.185C20.7079 19.1017 20.7448 19.0315 20.7658 19.0315C20.7922 19.0315 20.8238 18.9701 20.8449 18.8955C20.866 18.821 20.9134 18.7113 20.9556 18.6456C20.9977 18.5798 21.0294 18.4921 21.0294 18.4482C21.0294 18.4087 21.0557 18.3736 21.0821 18.3736C21.1137 18.3736 21.1348 18.3517 21.1348 18.3254C21.1348 18.2991 21.1664 18.2157 21.2086 18.1412C21.4088 17.7815 21.5564 17.4482 21.5564 17.3649C21.5564 17.3167 21.5828 17.2772 21.6091 17.2772C21.6407 17.2772 21.6618 17.2509 21.6618 17.2202C21.6671 17.1938 21.7093 17.0886 21.7672 16.9921C21.8252 16.8956 21.8674 16.7904 21.8727 16.7597C21.8727 16.7333 21.899 16.707 21.9254 16.707C21.957 16.707 21.9781 16.6719 21.9781 16.6281C21.9781 16.5886 22.0097 16.5009 22.0518 16.4351C22.094 16.3693 22.1414 16.2597 22.1625 16.1851C22.1836 16.1105 22.2205 16.0491 22.2416 16.0491C22.2679 16.0491 22.3048 15.979 22.3259 15.8956C22.3417 15.8123 22.3786 15.7421 22.3997 15.7421C22.4261 15.7421 22.4629 15.6764 22.484 15.6018C22.4998 15.5228 22.5473 15.4176 22.5842 15.3693C22.6211 15.3211 22.6685 15.2071 22.6843 15.115C22.7054 15.0272 22.7423 14.9527 22.7686 14.9527C22.795 14.9527 22.8319 14.8825 22.853 14.7992C22.8688 14.7159 22.9057 14.6457 22.932 14.6457C22.9531 14.6457 22.99 14.5755 23.0111 14.4922C23.0269 14.4088 23.0638 14.3387 23.0901 14.3387C23.1112 14.3387 23.1481 14.2641 23.1692 14.1764C23.1903 14.0843 23.2377 13.9834 23.2799 13.9527C23.3168 13.922 23.3484 13.865 23.3484 13.8299C23.3484 13.7948 23.3695 13.7334 23.4011 13.6896C23.4275 13.6501 23.5012 13.5141 23.5592 13.3957C23.6225 13.2729 23.7068 13.115 23.749 13.0361C23.7911 12.9615 23.8227 12.8826 23.8227 12.8606C23.8227 12.8431 23.8544 12.7729 23.8965 12.7071C23.9387 12.6414 23.9861 12.5317 24.0072 12.4572C24.0283 12.3826 24.0599 12.3212 24.0863 12.3212C24.1073 12.3212 24.1442 12.251 24.1601 12.1677C24.1811 12.0844 24.218 12.0142 24.2391 12.0142C24.2655 12.0142 24.3024 11.944 24.3182 11.8607C24.3393 11.7773 24.3761 11.7072 24.4025 11.7072C24.4236 11.7072 24.4605 11.6282 24.4816 11.5317C24.5026 11.4353 24.5395 11.3563 24.5606 11.3563C24.587 11.3563 24.6239 11.2861 24.6449 11.2028C24.6608 11.1195 24.6976 11.0493 24.7187 11.0493C24.7451 11.0493 24.7767 10.9923 24.7978 10.9221C24.8136 10.8519 24.8768 10.7204 24.9348 10.6283C24.9875 10.5362 25.035 10.4134 25.035 10.3607C25.035 10.3037 25.056 10.2599 25.0877 10.2599C25.114 10.2599 25.1509 10.1897 25.172 10.1063C25.1878 10.023 25.2247 9.95284 25.2511 9.95284C25.2721 9.95284 25.309 9.88267 25.3301 9.79934C25.3459 9.71601 25.3828 9.64584 25.4092 9.64584C25.4355 9.64584 25.4566 9.61952 25.4566 9.58882C25.4566 9.5625 25.4882 9.48356 25.5304 9.41777C25.5726 9.35199 25.62 9.24234 25.6411 9.16778C25.6622 9.09322 25.6938 9.03182 25.7201 9.03182C25.7412 9.03182 25.7781 8.96165 25.7939 8.87831C25.815 8.79499 25.8519 8.72481 25.8782 8.72481C25.9099 8.72481 25.9309 8.68972 25.9309 8.64587C25.9309 8.6064 25.9784 8.49675 26.0364 8.40465C26.0943 8.31693 26.1418 8.21606 26.1418 8.18974C26.1418 8.15904 26.1734 8.0801 26.2156 8.01431C26.2577 7.94852 26.3052 7.83887 26.3262 7.76432C26.3473 7.68976 26.3789 7.62836 26.4053 7.62836C26.4264 7.62836 26.4633 7.55818 26.4791 7.47485C26.5002 7.39152 26.5371 7.32135 26.5634 7.32135C26.5898 7.32135 26.6267 7.25117 26.6477 7.16784C26.6635 7.08451 26.7004 7.01434 26.7268 7.01434C26.7531 7.01434 26.79 6.93539 26.8059 6.83891C26.8269 6.74242 26.8586 6.66347 26.8849 6.66347C26.906 6.66347 26.9429 6.5933 26.964 6.50997C26.9798 6.42664 27.0167 6.35646 27.043 6.35646C27.0694 6.35646 27.0905 6.33454 27.0905 6.30822C27.0905 6.23366 27.3698 5.72491 27.4172 5.70736C27.4383 5.69859 27.4594 5.65912 27.4594 5.61964C27.4647 5.57579 27.5068 5.46614 27.5648 5.36965C27.6228 5.27317 27.6649 5.15036 27.6702 5.09335C27.6702 5.04072 27.6913 4.99686 27.7177 4.99686C27.744 4.99686 27.7756 4.95739 27.7914 4.90914C27.8073 4.8609 27.8441 4.82143 27.8758 4.82143C27.9179 4.82143 27.9337 5.57579 27.9337 7.45292V10.0844H30.4372H32.9407V7.44854V4.81704L41.3736 4.8302C47.4716 4.83897 49.8222 4.85651 49.8486 4.8916C49.8696 4.91791 50.1226 4.953 50.4125 4.97054C50.7024 4.98809 50.9501 5.01879 50.9659 5.04072C50.9817 5.05826 51.1398 5.08896 51.3243 5.1065C51.5035 5.12405 51.6511 5.15036 51.6511 5.17229C51.6511 5.18983 51.7618 5.21615 51.8935 5.23369C52.0306 5.24685 52.1676 5.27755 52.1992 5.29948C52.2308 5.31702 52.3837 5.36088 52.5365 5.39158C52.6841 5.4179 52.8106 5.46176 52.8106 5.4793C52.8106 5.50123 52.8896 5.53193 52.9845 5.54509C53.0741 5.56263 53.1637 5.58894 53.1795 5.60649C53.1953 5.61964 53.3218 5.68105 53.4694 5.74245C53.6117 5.80385 53.7593 5.86964 53.7962 5.89595C53.8331 5.91788 53.8963 5.96613 53.9385 5.99244C53.9806 6.02314 54.0333 6.04946 54.0492 6.04946C54.1915 6.04946 55.2614 6.90908 55.5249 7.23363C55.6092 7.34328 55.6936 7.43977 55.7094 7.45292C55.7252 7.46608 55.7937 7.57134 55.8675 7.69414C55.9413 7.81256 56.0151 7.92221 56.0309 7.93536C56.052 7.94852 56.0941 8.04062 56.131 8.1415C56.1679 8.24676 56.2153 8.33009 56.2364 8.33009C56.2575 8.33009 56.2944 8.4178 56.3102 8.52745C56.3313 8.6371 56.3682 8.72481 56.3945 8.72481C56.4156 8.72481 56.4525 8.84323 56.4736 8.98796C56.4947 9.13269 56.5316 9.25111 56.5527 9.25111C56.579 9.25111 56.6106 9.40462 56.6317 9.58882C56.6475 9.77741 56.6844 9.966 56.7108 10.0055C56.774 10.102 56.7793 11.9572 56.716 11.9879C56.695 12.001 56.6528 12.1721 56.637 12.3651C56.6159 12.558 56.579 12.7247 56.5527 12.7378C56.5263 12.751 56.4894 12.8694 56.4736 13.001C56.4525 13.1326 56.4156 13.2422 56.3893 13.2422C56.3682 13.2422 56.3313 13.3299 56.3102 13.4396C56.2944 13.5492 56.2575 13.6369 56.2364 13.6369C56.2153 13.6369 56.1679 13.7334 56.131 13.8562C56.0941 13.9746 56.0467 14.0755 56.0256 14.0755C55.9993 14.0755 55.9676 14.1369 55.9465 14.2071C55.9255 14.2773 55.8938 14.3387 55.8675 14.3387C55.8411 14.3387 55.8095 14.3957 55.7884 14.4702C55.7673 14.5404 55.7305 14.6018 55.7041 14.6018C55.6777 14.6018 55.6567 14.6238 55.6567 14.6457C55.6567 14.6939 55.2245 15.229 55.0716 15.3737C55.0137 15.422 54.9715 15.479 54.9715 15.5009C54.9715 15.5623 54.0492 16.3474 53.6328 16.6412C53.501 16.7377 53.3587 16.8386 53.3218 16.8605C53.2849 16.8868 53.111 16.9921 52.9318 17.0974C52.7473 17.2026 52.5998 17.3079 52.5998 17.3254C52.5998 17.3474 52.5681 17.3649 52.5312 17.3649C52.4944 17.3649 52.3415 17.4351 52.1834 17.5184C52.0306 17.6017 51.883 17.6719 51.8566 17.6719C51.8303 17.6719 51.8092 17.6894 51.8092 17.7114C51.8092 17.7333 51.7407 17.764 51.6563 17.7815C51.572 17.7947 51.4877 17.8342 51.4771 17.8693C51.4613 17.9 51.377 17.9394 51.2874 17.957C51.1978 17.9745 51.124 18.0008 51.124 18.0228C51.124 18.0447 51.0555 18.071 50.9659 18.0886C50.8816 18.1061 50.8078 18.1324 50.8078 18.1543C50.8078 18.1763 50.7393 18.2026 50.6497 18.2201C50.5653 18.2377 50.4916 18.264 50.4916 18.2859C50.4916 18.3035 50.4072 18.3342 50.3071 18.3473C50.207 18.3649 50.1226 18.3956 50.1226 18.4175C50.1226 18.435 50.0541 18.4657 49.9645 18.4833C49.8802 18.5008 49.8064 18.5271 49.8064 18.5491C49.8064 18.5666 49.7115 18.5929 49.5956 18.6105C49.4796 18.6236 49.3848 18.6543 49.3848 18.6719C49.3848 18.6938 49.2688 18.7333 49.1212 18.764C48.9789 18.7947 48.8472 18.8385 48.8261 18.8605C48.8103 18.8824 48.747 18.8999 48.6838 18.8999C48.6205 18.8999 48.4993 18.9306 48.415 18.9657C48.3307 19.0008 48.1725 19.0447 48.0619 19.0578C47.9459 19.0754 47.8563 19.1017 47.8563 19.1236C47.8563 19.1412 47.7509 19.1719 47.6191 19.1894C47.4874 19.2026 47.382 19.2333 47.382 19.2508C47.382 19.2727 47.266 19.299 47.1184 19.3166C46.9761 19.3341 46.8549 19.3604 46.8549 19.3824C46.8549 19.3999 46.7231 19.4306 46.565 19.4482C46.4069 19.4613 46.2646 19.492 46.2488 19.514C46.233 19.5359 46.0907 19.5666 45.9326 19.5797C45.7744 19.5973 45.6427 19.628 45.6427 19.6455C45.6427 19.6631 45.4371 19.7025 45.1842 19.7332C44.9259 19.7639 44.6993 19.8034 44.6676 19.821C44.6413 19.8385 44.441 19.8692 44.2355 19.8867C44.0246 19.9043 43.8507 19.9306 43.8507 19.9525C43.8507 19.9701 43.661 20.0008 43.4291 20.0139C43.1972 20.0315 42.9969 20.0622 42.9811 20.0841C42.9653 20.1017 42.7439 20.1324 42.4804 20.1499C42.2221 20.1674 42.006 20.1981 42.006 20.2201C42.006 20.242 41.8953 20.2595 41.7583 20.2595C41.616 20.2595 41.4526 20.2727 41.3841 20.2859L41.2682 20.3122L41.2787 22.2726L41.2945 24.2287L44.2302 24.2506C46.4385 24.2682 47.1869 24.2901 47.2344 24.3296C47.2713 24.3603 47.4294 24.3822 47.5928 24.3866C47.7509 24.3866 48.0144 24.4085 48.1725 24.4261C48.3307 24.448 48.7101 24.4963 49.0158 24.5357C49.3215 24.5708 49.6061 24.6191 49.6535 24.641C49.701 24.6629 49.8696 24.6936 50.033 24.7112C50.2017 24.7287 50.3334 24.7594 50.3334 24.7769C50.3334 24.7989 50.4547 24.8252 50.597 24.8427C50.7445 24.8603 50.8605 24.8866 50.8605 24.9085C50.8605 24.9261 50.9659 24.9568 51.0977 24.9699C51.2294 24.9875 51.3348 25.0182 51.3348 25.0445C51.3348 25.0664 51.377 25.084 51.4297 25.084C51.4771 25.084 51.5826 25.1103 51.6616 25.1454C51.7407 25.1804 51.8724 25.2199 51.962 25.2375C52.0516 25.255 52.1254 25.2857 52.1254 25.3076C52.1254 25.3296 52.1518 25.3471 52.1834 25.3471C52.2098 25.3471 52.3679 25.3953 52.526 25.4567C52.6841 25.5182 52.8369 25.5664 52.8633 25.5664C52.8949 25.5664 52.916 25.5839 52.916 25.6103C52.916 25.6322 52.974 25.6629 53.0478 25.6804C53.1216 25.6936 53.1795 25.7243 53.1795 25.7462C53.1795 25.7681 53.2111 25.7857 53.2533 25.7857C53.2955 25.7857 53.364 25.812 53.4009 25.8383C53.4378 25.869 53.5326 25.9216 53.6064 25.9523C53.6802 25.9874 53.8014 26.0532 53.8805 26.1059C53.9543 26.1585 54.065 26.233 54.1282 26.2681C54.5815 26.5225 55.6725 27.4611 55.7779 27.6847C55.7937 27.7242 55.8359 27.7593 55.8675 27.7593C55.8938 27.7593 55.9202 27.7856 55.9202 27.8207C55.9202 27.8558 55.9518 27.9128 55.9887 27.9435C56.0256 27.9742 56.0889 28.0663 56.1257 28.1409C56.1626 28.2198 56.2153 28.2856 56.2417 28.2856C56.268 28.2856 56.2891 28.3119 56.2891 28.3382C56.2944 28.3689 56.3366 28.4742 56.3945 28.5707C56.4525 28.6672 56.4947 28.7724 56.5 28.7987C56.5 28.8295 56.521 28.8558 56.5527 28.8558C56.579 28.8558 56.6159 28.9259 56.637 29.0093C56.6528 29.0926 56.6897 29.1715 56.7108 29.1847C56.7371 29.1979 56.7687 29.2856 56.7898 29.3821C56.8109 29.4786 56.8478 29.5663 56.8689 29.5794C56.8952 29.5926 56.9321 29.711 56.9479 29.8426C56.969 29.9742 57.0059 30.0838 57.027 30.0838C57.0481 30.0838 57.085 30.2461 57.1061 30.4478C57.1271 30.6452 57.1693 30.8338 57.2062 30.8689C57.2853 30.9522 57.28 33.5442 57.2009 33.5837C57.1693 33.6012 57.1271 33.8074 57.1061 34.0442C57.085 34.2766 57.0534 34.4696 57.027 34.4696C57.0059 34.4696 56.969 34.5968 56.9479 34.7547C56.9321 34.9126 56.8952 35.0398 56.8689 35.0398C56.8478 35.0398 56.8162 35.1363 56.7951 35.2591C56.774 35.3775 56.7371 35.4871 56.716 35.5003C56.6897 35.5135 56.6528 35.6012 56.6317 35.6977C56.6106 35.7941 56.5737 35.8731 56.5474 35.8731C56.521 35.8731 56.5 35.9126 56.5 35.9608C56.5 36.0091 56.4578 36.1187 56.3998 36.2108C56.3471 36.3029 56.247 36.4827 56.1785 36.6099C56.1152 36.7327 56.0414 36.838 56.0203 36.838C55.9993 36.838 55.9676 36.8906 55.9518 36.952C55.9307 37.0178 55.8886 37.0924 55.8517 37.1274C55.7041 37.2634 55.6672 37.3116 55.6356 37.395C55.6145 37.4476 55.5671 37.5002 55.5249 37.5134C55.4827 37.5265 55.4458 37.5572 55.4458 37.5836C55.4458 37.6143 55.3826 37.6888 55.3035 37.7546C55.1771 37.8599 55.0716 37.9695 54.9293 38.1318C54.9083 38.1537 54.7765 38.2546 54.6289 38.3511C54.4866 38.4476 54.3127 38.5704 54.2547 38.623C54.1915 38.68 54.1177 38.7239 54.0861 38.7239C54.0544 38.7239 54.007 38.7502 53.9859 38.7809C53.9069 38.8862 52.6472 39.4695 52.4996 39.4695C52.468 39.4695 52.4417 39.487 52.4417 39.5133C52.4417 39.5353 52.3468 39.5703 52.2308 39.5835C52.1149 39.601 52.02 39.6274 52.02 39.6449C52.02 39.6624 51.9357 39.6931 51.8303 39.7107C51.7249 39.7238 51.5984 39.7545 51.5509 39.7765C51.4403 39.8291 50.7867 39.9475 50.2544 40.0089C50.0225 40.0396 49.7959 40.0791 49.7537 40.1054C49.701 40.1361 46.7706 40.1537 41.3103 40.1624L32.9407 40.1756V37.8686V35.5661H30.4372H27.9337V40.2808V45L39.5447 44.9868C48.4888 44.9781 51.1767 44.9605 51.2558 44.9211C51.3138 44.8904 51.6142 44.8553 51.9304 44.8377C52.2414 44.8246 52.4944 44.7939 52.4944 44.7719C52.4944 44.75 52.584 44.7325 52.6946 44.7281C53.0161 44.7281 54.3285 44.5263 54.4181 44.4693C54.4497 44.4518 54.5973 44.4211 54.7501 44.4035C54.8977 44.386 55.0242 44.3553 55.0242 44.3377C55.0242 44.3202 55.1402 44.2895 55.2877 44.272C55.43 44.2544 55.5618 44.2237 55.5829 44.2018C55.5987 44.1799 55.6514 44.1623 55.6988 44.1623C55.7463 44.1623 55.8569 44.1316 55.936 44.0965C56.0151 44.0614 56.1626 44.022 56.2628 44.0044C56.3629 43.9913 56.4472 43.9606 56.4472 43.943C56.4472 43.9255 56.5316 43.8948 56.6317 43.8816C56.7319 43.8641 56.8162 43.8334 56.8162 43.8114C56.8162 43.7851 56.8583 43.7676 56.9111 43.7676C56.9585 43.7676 57.1219 43.7193 57.2642 43.6579C57.4118 43.6009 57.5593 43.5483 57.5962 43.5483C57.6278 43.5483 57.6595 43.5307 57.6595 43.5088C57.6595 43.4869 57.7333 43.4562 57.8176 43.4386C57.9072 43.4211 57.9757 43.3948 57.9757 43.3729C57.9757 43.3553 58.0389 43.3246 58.118 43.3071C58.1971 43.2939 58.2761 43.2632 58.2919 43.2501C58.3236 43.2106 58.4922 43.1229 58.6609 43.0571C58.7346 43.0264 58.8242 42.9781 58.8611 42.9474C58.898 42.9167 58.9666 42.8904 59.0087 42.8904C59.0509 42.8904 59.0825 42.8773 59.0825 42.8553C59.0825 42.8378 59.2037 42.7676 59.346 42.6931C59.4936 42.6229 59.6096 42.5483 59.6096 42.5308C59.6096 42.5132 59.6465 42.4957 59.6886 42.4957C59.7255 42.4957 59.7835 42.4694 59.8046 42.4387C59.8256 42.4036 59.8889 42.3597 59.9363 42.3378C60.2631 42.1887 61.8864 40.8378 61.976 40.6405C61.9866 40.6142 62.0498 40.5528 62.1131 40.5045C62.1763 40.4519 62.2395 40.3773 62.2606 40.3335C62.2764 40.294 62.3186 40.2589 62.345 40.2589C62.3713 40.2589 62.4082 40.2107 62.424 40.1493C62.4451 40.0879 62.482 40.0396 62.5083 40.0396C62.54 40.0396 62.561 40.0089 62.561 39.9738C62.561 39.9431 62.5927 39.8949 62.6296 39.8774C62.6928 39.8423 62.7613 39.7502 63.0143 39.3379C63.0986 39.2063 63.183 39.0879 63.2041 39.0747C63.2199 39.0616 63.2568 38.9958 63.2726 38.93C63.2936 38.8642 63.3305 38.8116 63.3569 38.8116C63.3832 38.8116 63.4043 38.7853 63.4043 38.7546C63.4096 38.7283 63.4518 38.623 63.5097 38.5265C63.5677 38.43 63.6099 38.3248 63.6152 38.2941C63.6152 38.2678 63.6362 38.2414 63.6626 38.2414C63.6889 38.2414 63.7311 38.1757 63.7469 38.1011C63.768 38.0221 63.7996 37.9476 63.8207 37.9344C63.8734 37.8993 64.1422 37.202 64.1422 37.1055C64.1422 37.0573 64.1633 37.0046 64.1949 36.9915C64.2213 36.9783 64.2582 36.8687 64.2792 36.7503C64.3003 36.6275 64.3319 36.531 64.3583 36.531C64.3794 36.531 64.4163 36.4125 64.4374 36.2678C64.4584 36.1231 64.4901 36.0047 64.5164 36.0047C64.5375 36.0047 64.5744 35.8643 64.5955 35.6977C64.6165 35.5266 64.6482 35.3775 64.6693 35.3687C64.6956 35.3556 64.7272 35.1933 64.7483 35.0047C64.7641 34.8205 64.801 34.6275 64.8274 34.5793C65.054 34.1714 65.0593 29.7066 64.8326 29.3821C64.8063 29.3426 64.7694 29.1715 64.7483 28.9961C64.7272 28.8207 64.6903 28.6803 64.6693 28.6803C64.6482 28.6803 64.6113 28.5707 64.5902 28.4391C64.5744 28.3075 64.5375 28.1891 64.5111 28.176C64.4848 28.1628 64.4479 28.0619 64.4268 27.9567C64.411 27.847 64.3741 27.7593 64.353 27.7593C64.3267 27.7593 64.2951 27.6804 64.274 27.5839C64.2529 27.4874 64.216 27.4084 64.1949 27.4084C64.1686 27.4084 64.1317 27.3339 64.1106 27.2462C64.0737 27.0883 63.7416 26.4874 63.6626 26.4436C63.6415 26.4304 63.6046 26.3646 63.5888 26.2988C63.5677 26.233 63.5308 26.1804 63.5045 26.1804C63.4781 26.1804 63.457 26.1541 63.457 26.119C63.457 26.0839 63.4254 26.0269 63.3885 25.9962C63.3516 25.9655 63.2936 25.8909 63.2568 25.8295C63.1724 25.6804 63.0776 25.5664 62.9721 25.4699C62.9194 25.426 62.8773 25.3778 62.8773 25.3559C62.8773 25.3076 62.3186 24.7682 61.9233 24.4349C61.4701 24.0489 60.8218 23.5928 60.7269 23.5928C60.7058 23.5928 60.6479 23.5577 60.6004 23.5138C60.4739 23.3998 60.2789 23.2858 60.2104 23.2858C60.1735 23.2858 60.1366 23.2551 60.1155 23.22C60.0997 23.1849 60.0523 23.1542 60.0048 23.1542C59.9627 23.1542 59.9258 23.1323 59.9258 23.1103C59.9258 23.084 59.8942 23.0665 59.852 23.0665C59.8098 23.0665 59.7413 23.0402 59.7044 23.0095C59.6148 22.9393 58.7557 22.584 58.6767 22.584C58.6398 22.584 58.6082 22.5665 58.6082 22.5446C58.6082 22.5226 58.5396 22.4919 58.45 22.4744C58.3657 22.4568 58.2919 22.4305 58.2919 22.4086C58.2919 22.3911 58.2076 22.3604 58.1075 22.3472C58.0073 22.3297 57.923 22.299 57.923 22.2814C57.923 22.2595 57.8281 22.2332 57.7122 22.2156C57.5962 22.2025 57.5014 22.1718 57.5014 22.1498C57.5014 22.1279 57.4065 22.0972 57.2905 22.0797C57.1746 22.0621 57.0692 22.0358 57.0534 22.0139C57.0375 21.9919 56.9321 21.9656 56.8162 21.9481C56.7002 21.9305 56.5948 21.8998 56.579 21.8823C56.5632 21.8604 56.4367 21.8297 56.2997 21.8121C56.1626 21.799 56.0256 21.7639 55.994 21.7463C55.9624 21.7244 55.7515 21.6805 55.5302 21.6542C55.3088 21.6235 55.1296 21.5841 55.1296 21.5665C55.1296 21.5446 55.0769 21.5314 55.0137 21.5314C54.8345 21.5314 54.6553 21.4832 54.6553 21.4393C54.6553 21.4174 54.6869 21.3999 54.7238 21.3999C54.7554 21.3955 54.8819 21.3604 54.9979 21.3121C55.1138 21.2639 55.2403 21.2288 55.2772 21.2244C55.3088 21.2244 55.3404 21.2069 55.3404 21.1806C55.3404 21.1586 55.4248 21.1279 55.5249 21.1104C55.625 21.0972 55.7094 21.0665 55.7094 21.049C55.7094 21.0271 55.7832 21.0007 55.8675 20.9832C55.9571 20.9657 56.0256 20.9393 56.0256 20.9174C56.0256 20.8955 56.0994 20.8692 56.1837 20.8516C56.2733 20.8341 56.3418 20.8078 56.3418 20.7858C56.3418 20.7683 56.4051 20.7376 56.4894 20.7201C56.5685 20.7025 56.7635 20.6236 56.9269 20.5402C57.0902 20.4569 57.2536 20.3911 57.2853 20.3911C57.3169 20.3911 57.3432 20.3692 57.3432 20.3473C57.3432 20.3209 57.3749 20.3034 57.417 20.3034C57.4592 20.3034 57.5277 20.2771 57.5646 20.2464C57.6595 20.1806 57.807 20.0973 57.9757 20.0271C58.1127 19.9745 58.1338 19.9613 58.3394 19.821C58.4079 19.7727 58.4975 19.7332 58.5396 19.7332C58.5765 19.7332 58.624 19.7025 58.6398 19.6675C58.6609 19.6324 58.703 19.6017 58.7452 19.6017C58.7874 19.6017 58.8611 19.5622 58.9086 19.514C58.9613 19.4657 59.0245 19.4262 59.0509 19.4262C59.0772 19.4262 59.151 19.378 59.2195 19.3166C59.2881 19.2552 59.3618 19.2069 59.3829 19.2069C59.4093 19.2069 59.4883 19.1499 59.5569 19.0754C59.6306 19.0052 59.715 18.9482 59.7519 18.9438C59.7835 18.9438 59.9416 18.8385 60.0997 18.7113C60.2578 18.5885 60.4897 18.4 60.6162 18.3035C60.8323 18.1324 61.2961 17.7201 61.6651 17.3649C61.7494 17.2816 61.8232 17.1938 61.8232 17.1719C61.8232 17.15 61.8811 17.0886 61.9549 17.0316C62.0287 16.9746 62.0867 16.9175 62.0867 16.9044C62.0867 16.8825 62.2923 16.6237 62.3502 16.5754C62.3924 16.5404 62.5031 16.3869 62.5716 16.2684C62.6085 16.207 62.6506 16.15 62.6717 16.1369C62.6875 16.1237 62.7719 15.9965 62.8562 15.8518C62.9405 15.7071 63.0249 15.5799 63.0459 15.5667C63.0617 15.5535 63.0986 15.4878 63.1145 15.422C63.1355 15.3562 63.1724 15.3036 63.1988 15.3036C63.2251 15.3036 63.262 15.2246 63.2778 15.1281C63.2989 15.0316 63.3305 14.9527 63.3569 14.9527C63.378 14.9527 63.4149 14.8825 63.436 14.7992C63.4518 14.7159 63.4887 14.6457 63.515 14.6457C63.5361 14.6457 63.573 14.5755 63.5941 14.4922C63.6099 14.4088 63.6468 14.3255 63.6731 14.3167C63.6942 14.3036 63.7311 14.2027 63.7522 14.0975C63.768 13.9878 63.8049 13.8869 63.8312 13.8782C63.8523 13.865 63.8892 13.7597 63.9103 13.6457C63.9261 13.5317 63.963 13.4176 63.9841 13.3957C64.0052 13.3694 64.0526 13.1633 64.0895 12.9352C64.1211 12.7071 64.1738 12.4835 64.2002 12.4396C64.2265 12.3958 64.2634 12.0186 64.2845 11.5931C64.3003 11.1721 64.3372 10.8169 64.3636 10.8037C64.4215 10.773 64.4215 10.3169 64.3636 10.2862C64.3372 10.273 64.3003 9.87828 64.2845 9.409C64.2687 8.93972 64.2318 8.51868 64.2055 8.47482C64.1738 8.43096 64.1264 8.18974 64.0895 7.93536C64.0579 7.68098 64.0104 7.45731 63.9841 7.43099C63.963 7.40907 63.9261 7.28188 63.905 7.15469C63.8839 7.03188 63.8471 6.92662 63.826 6.92662C63.8049 6.92662 63.768 6.82575 63.7469 6.70733C63.7258 6.58453 63.6889 6.48804 63.6626 6.48804C63.6362 6.48804 63.6152 6.45295 63.6152 6.4091C63.6152 6.36962 63.5783 6.27752 63.5361 6.20735C63.4939 6.14156 63.457 6.06261 63.457 6.03191C63.4518 6.0056 63.4096 5.90472 63.3516 5.80824C63.2936 5.71175 63.2515 5.60649 63.2462 5.57579C63.2462 5.54947 63.2251 5.52316 63.1988 5.52316C63.1724 5.52316 63.1355 5.46176 63.1145 5.39158C63.0934 5.31702 63.0617 5.26001 63.0407 5.26001C63.0196 5.26001 62.9721 5.18545 62.9405 5.08896C62.9036 4.99686 62.8404 4.89598 62.7982 4.86528C62.7561 4.83458 62.7192 4.78195 62.7192 4.75125C62.7192 4.71616 62.6981 4.68985 62.6665 4.68985C62.6401 4.68985 62.6138 4.66792 62.6138 4.64599C62.6138 4.59336 62.3977 4.32582 62.3397 4.3039C62.3133 4.29512 62.2975 4.26004 62.2975 4.22495C62.2975 4.18987 62.2606 4.15039 62.2185 4.13724C62.1763 4.12408 62.1289 4.07145 62.1131 4.02759C62.0709 3.91795 61.9391 3.79514 61.2381 3.20744C60.6162 2.68114 60.3053 2.45308 60.2051 2.45308C60.1682 2.45308 60.1366 2.43554 60.1366 2.41799C60.1366 2.37413 59.3671 1.92678 59.2933 1.92678C59.2617 1.92678 59.2406 1.90923 59.2406 1.88292C59.2406 1.86099 59.1826 1.83029 59.1089 1.81275C59.0351 1.79959 58.9771 1.76889 58.9771 1.74696C58.9771 1.72503 58.9507 1.70749 58.9191 1.70749C58.8453 1.70749 58.2708 1.48381 58.2392 1.43995C58.2234 1.42241 58.1444 1.39171 58.0653 1.37855C57.9862 1.36101 57.923 1.33031 57.923 1.30838C57.923 1.28645 57.8281 1.25574 57.7122 1.24259C57.5962 1.22504 57.5014 1.19873 57.5014 1.1768C57.5014 1.15926 57.417 1.12856 57.3169 1.11102C57.2167 1.09786 57.1324 1.06716 57.1324 1.04961C57.1324 1.03207 57.0481 1.00137 56.9479 0.988213C56.8478 0.970669 56.7002 0.931194 56.6212 0.896107C56.5421 0.861023 56.4262 0.830322 56.3682 0.830322C56.3049 0.830322 56.2364 0.812778 56.2101 0.790848C56.1521 0.751377 55.8728 0.689976 55.235 0.58033C55.0189 0.545242 54.8028 0.496998 54.7554 0.479454C54.7132 0.457527 54.513 0.43121 54.3232 0.413666C54.1282 0.396126 53.9701 0.365425 53.9701 0.347881C53.9701 0.330338 53.7487 0.299637 53.4852 0.282093C53.2164 0.264549 52.9845 0.233849 52.9687 0.216305C52.9529 0.194374 52.6208 0.163673 52.2308 0.150517C51.8408 0.132973 51.4877 0.093502 51.4455 0.0671883C51.3928 0.0321007 47.5717 0.0145569 37.1993 0.0057869C23.6066 -0.00737381 23.0269 -0.00298691 23.0005 0.0715714Z" fill="url(#paint0_linear_1511_8)"/>
<defs>
<linearGradient id="paint0_linear_1511_8" x1="32.5" y1="45" x2="32.5" y2="0" gradientUnits="userSpaceOnUse">
<stop stop-color="#2BD984"/>
<stop offset="1" stop-color="#3CF4C8" stop-opacity="0.8"/>
</linearGradient>
</defs>
</svg>
