<?xml version="1.0" standalone="no"?>
<!DOCTYPE svg PUBLIC "-//W3C//DTD SVG 20010904//EN"
 "http://www.w3.org/TR/2001/REC-SVG-20010904/DTD/svg10.dtd">
<svg version="1.0" xmlns="http://www.w3.org/2000/svg"
 width="700.000000pt" height="700.000000pt" viewBox="0 0 700.000000 700.000000"
 preserveAspectRatio="xMidYMid meet">
<metadata>
Created by potrace 1.14, written by Peter Selinger 2001-2017
</metadata>
<g transform="translate(0.000000,700.000000) scale(0.100000,-0.100000)"
fill="#000000" stroke="none">
<path d="M2707 5923 c-3 -2 -55 -4 -116 -4 l-110 0 -45 -89 c-25 -48 -42 -90
-39 -94 4 -3 2 -6 -4 -6 -6 0 -36 -53 -68 -117 -32 -65 -60 -120 -64 -123 -3
-3 -11 -16 -17 -30 -7 -14 -28 -58 -48 -97 -21 -40 -35 -73 -32 -73 3 0 -1 -8
-9 -17 -8 -10 -15 -22 -14 -27 0 -5 -3 -12 -8 -15 -18 -13 -75 -140 -68 -152
5 -7 4 -10 -3 -5 -10 6 -72 -96 -72 -120 0 -7 -3 -14 -7 -16 -11 -4 -43 -67
-43 -84 0 -8 -3 -14 -7 -14 -10 0 -49 -89 -45 -102 1 -5 -1 -7 -6 -4 -5 3 -14
-5 -19 -17 -43 -91 -69 -143 -73 -147 -11 -11 -40 -73 -40 -86 0 -8 -4 -14 -8
-14 -4 0 -23 -33 -42 -72 -19 -40 -50 -102 -70 -138 -20 -36 -43 -81 -50 -100
-8 -19 -16 -37 -19 -40 -3 -3 -38 -68 -77 -145 -40 -77 -107 -207 -149 -290
-84 -163 -212 -411 -380 -740 -59 -115 -147 -286 -195 -380 -48 -93 -136 -264
-195 -380 -59 -115 -149 -291 -200 -390 -51 -99 -150 -292 -220 -430 -70 -137
-132 -256 -138 -263 -5 -7 -7 -15 -4 -18 4 -5 636 -9 802 -5 l50 1 51 103 c28
56 109 219 179 362 70 143 215 437 322 652 l193 393 103 0 c56 1 485 1 952 2
468 1 855 3 862 5 11 5 5 27 -32 108 -7 17 -27 66 -44 110 -40 103 -42 106
-99 235 l-28 65 -722 0 c-419 0 -722 4 -722 9 0 8 132 280 243 501 98 196 119
240 120 256 1 10 3 16 6 13 5 -5 253 493 249 500 -2 2 6 13 16 25 11 12 16 21
12 21 -4 0 1 12 11 28 10 15 32 56 48 92 17 36 32 67 35 70 3 3 14 25 25 50
10 25 25 53 33 63 8 9 12 17 8 17 -3 0 1 11 10 25 9 14 12 25 8 25 -5 0 -4 4
2 8 6 4 65 114 130 245 65 130 129 256 141 280 12 23 22 48 22 55 1 7 5 11 11
7 5 -3 8 -21 6 -41 -1 -19 1 -37 6 -40 5 -3 6 -10 2 -16 -6 -9 -6 -74 -1 -367
l2 -105 50 0 c28 -1 57 2 66 6 9 4 19 4 23 1 10 -10 65 -9 59 1 -4 5 0 6 6 1
7 -4 54 -7 104 -6 51 0 99 1 107 1 8 0 29 0 45 -1 77 -3 71 -13 72 131 0 93
-3 128 -11 123 -8 -5 -8 -3 0 8 15 17 16 162 2 153 -5 -3 -4 4 4 15 11 18 11
23 -2 31 -10 6 -11 10 -2 10 6 0 12 7 12 16 0 8 -5 12 -11 9 -6 -4 -5 3 3 15
10 18 10 24 1 27 -10 4 -10 7 0 17 9 9 77 12 275 12 145 -1 266 2 269 7 3 4
10 4 16 -1 15 -11 148 -10 166 2 8 5 12 5 9 0 -4 -5 206 -10 510 -11 466 -2
604 -5 682 -18 93 -15 254 -58 272 -73 9 -8 28 -15 41 -16 14 0 23 -4 20 -9
-2 -4 6 -11 19 -16 26 -10 138 -98 151 -118 4 -6 14 -18 22 -26 23 -23 72
-121 90 -178 9 -30 19 -90 22 -134 3 -44 11 -83 17 -87 8 -5 7 -8 -2 -8 -10 0
-13 -14 -10 -54 1 -30 0 -52 -4 -49 -5 2 -8 -7 -8 -21 0 -33 -43 -147 -77
-206 -37 -64 -119 -159 -178 -206 -52 -42 -202 -144 -212 -144 -3 0 -42 -18
-87 -39 -78 -37 -300 -118 -351 -127 -13 -2 -37 -9 -52 -15 -16 -6 -28 -10
-28 -9 0 1 -18 -2 -40 -8 -63 -15 -187 -41 -220 -46 -16 -3 -88 -14 -160 -25
-71 -11 -157 -24 -190 -28 l-60 -8 0 -200 c0 -110 1 -205 3 -211 2 -7 91 -11
270 -13 147 -1 290 -4 317 -6 99 -6 191 -16 245 -25 30 -5 73 -12 95 -16 22
-3 43 -8 46 -10 3 -2 19 -6 36 -8 44 -8 180 -55 239 -82 28 -13 54 -24 57 -24
4 0 41 -23 83 -52 234 -159 333 -354 328 -650 -4 -305 -114 -534 -322 -672
-105 -69 -265 -130 -377 -142 -27 -3 -54 -8 -58 -11 -16 -10 -225 -13 -988
-13 -431 0 -803 0 -826 0 l-43 0 0 245 0 245 -22 1 c-115 5 -511 2 -514 -3 -8
-13 -8 -998 0 -1005 8 -8 2372 -6 2481 2 91 7 196 19 265 30 14 2 43 7 65 11
114 18 331 85 450 139 302 138 534 377 630 650 9 28 21 59 25 70 7 17 17 54
20 77 1 4 6 22 11 40 28 94 36 183 36 393 1 190 -8 262 -42 370 -2 6 -6 21
-11 35 -19 62 -102 206 -153 267 -60 72 -180 177 -240 212 -156 89 -354 169
-486 196 -31 6 -117 24 -144 29 -38 8 -35 12 31 35 146 52 380 171 491 250
107 75 256 222 309 301 51 79 78 128 78 145 0 8 4 15 8 15 20 0 77 219 86 335
3 33 6 69 7 80 4 52 -1 86 -13 79 -10 -6 -10 -5 -1 7 10 12 10 18 1 27 -9 9
-9 12 1 12 7 0 10 4 6 9 -3 6 -7 42 -10 81 -2 40 -8 77 -13 83 -4 7 -8 19 -7
27 2 23 -24 93 -38 102 -8 5 -8 8 -1 8 13 0 -42 120 -60 132 -6 4 -7 8 -3 8
12 0 -69 112 -112 157 -129 131 -300 238 -471 293 -114 37 -234 68 -298 76
-12 1 -46 7 -75 13 -28 6 -75 13 -104 15 -29 2 -57 7 -62 10 -5 4 -13 2 -16
-4 -5 -8 -12 -7 -22 2 -12 9 -120 13 -462 16 -400 3 -490 3 -541 1 -8 0 -62 0
-120 0 -58 1 -134 1 -170 1 -36 0 -80 1 -97 3 -18 2 -33 0 -33 -4 0 -4 -10 -5
-22 -3 -13 3 -41 5 -63 4 -22 -1 -44 -2 -50 -1 -19 2 -130 3 -170 2 -22 -1
-65 0 -95 2 -30 1 -65 -1 -76 -5 -12 -4 -24 -4 -28 -1 -8 8 -76 11 -81 4 -3
-6 -54 -6 -62 -1 -5 2 -147 2 -158 0 -5 -1 -12 -2 -15 -1 -16 6 -81 7 -85 2
-3 -6 -54 -6 -62 -1 -5 2 -147 2 -158 0 -5 -1 -12 -2 -15 -1 -16 6 -81 7 -85
2 -3 -6 -54 -6 -62 -1 -5 2 -147 2 -158 0 -5 -1 -12 -1 -15 0 -15 5 -39 7 -43
3z m2057 -129 c3 -8 2 -12 -4 -9 -6 3 -10 10 -10 16 0 14 7 11 14 -7z m286 12
c0 -2 -7 -7 -16 -10 -8 -3 -12 -2 -9 4 6 10 25 14 25 6z m-1806 -92 c3 -8 2
-12 -4 -9 -6 3 -10 10 -10 16 0 14 7 11 14 -7z m1406 -38 c-7 -7 -13 -7 -20 0
-6 6 -3 10 10 10 13 0 16 -4 10 -10z m1320 -20 c0 -2 -8 -10 -17 -17 -16 -13
-17 -12 -4 4 13 16 21 21 21 13z m-1529 -29 c-10 -9 -11 -8 -5 6 3 10 9 15 12
12 3 -3 0 -11 -7 -18z m1244 -35 c-3 -3 -11 0 -18 7 -9 10 -8 11 6 5 10 -3 15
-9 12 -12z m-1075 -72 c0 -5 -2 -10 -4 -10 -3 0 -8 5 -11 10 -3 6 -1 10 4 10
6 0 11 -4 11 -10z m74 2 c3 -5 -1 -9 -9 -9 -8 0 -12 4 -9 9 3 4 7 8 9 8 2 0 6
-4 9 -8z m966 2 c0 -8 -19 -13 -24 -6 -3 5 1 9 9 9 8 0 15 -2 15 -3z m-790
-40 c0 -8 -19 -13 -24 -6 -3 5 1 9 9 9 8 0 15 -2 15 -3z m750 -8 c0 -2 -8 -10
-17 -17 -16 -13 -17 -12 -4 4 13 16 21 21 21 13z m-3320 -32 c0 -8 -19 -13
-24 -6 -3 5 1 9 9 9 8 0 15 -2 15 -3z m4401 -41 c13 -16 12 -17 -3 -4 -10 7
-18 15 -18 17 0 8 8 3 21 -13z m-508 -158 c-3 -9 -8 -14 -10 -11 -3 3 -2 9 2
15 9 16 15 13 8 -4z m-3823 1 c0 -2 -8 -10 -17 -17 -16 -13 -17 -12 -4 4 13
16 21 21 21 13z m375 -26 c3 -6 -1 -7 -9 -4 -18 7 -21 14 -7 14 6 0 13 -4 16
-10z m-645 -380 c0 -5 -5 -10 -11 -10 -5 0 -7 5 -4 10 3 6 8 10 11 10 2 0 4
-4 4 -10z m-125 -269 c3 -5 2 -12 -3 -15 -5 -3 -9 1 -9 9 0 17 3 19 12 6z
m402 -6 c0 -8 -4 -12 -9 -9 -5 3 -6 10 -3 15 9 13 12 11 12 -6z"/>
</g>
</svg>
