<svg width="50" height="45" viewBox="0 0 50 45" fill="none" xmlns="http://www.w3.org/2000/svg">
<path d="M25 0C10.9375 0 0 10.1613 0 23.2258C0 38.4677 14.8438 45 17.1875 45C18.75 45 18.75 44.2742 18.75 43.5484V39.9194C13.2812 41.371 10.9375 38.4677 10.1562 36.2903C10.1562 36.2903 10.1562 35.5645 8.59375 34.1129C7.8125 33.3871 4.6875 31.9355 7.8125 31.9355C10.1562 31.9355 11.7188 34.8387 11.7188 34.8387C14.0625 37.7419 17.1875 37.0161 18.75 36.2903C18.75 34.8387 20.3125 33.3871 20.3125 33.3871C14.0625 32.6613 9.375 30.4839 9.375 22.5C9.375 19.5968 10.1562 17.4194 11.7188 15.9677C11.7188 15.9677 10.1562 13.0645 11.7188 9.43548C11.7188 9.43548 15.625 9.43548 18.75 12.3387C21.0938 10.8871 28.9062 10.8871 31.25 12.3387C34.375 9.43548 38.2812 9.43548 38.2812 9.43548C39.8438 14.5161 38.2812 15.9677 38.2812 15.9677C39.8438 17.4194 40.625 19.5968 40.625 22.5C40.625 30.4839 35.1562 32.6613 29.6875 33.3871C30.4688 34.1129 31.25 35.5645 31.25 37.7419V43.5484C31.25 44.2742 31.25 45 32.8125 45C35.1562 45 50 38.4677 50 23.2258C50 10.1613 39.0625 0 25 0Z" fill="url(#paint0_linear_1468_214)"/>
<defs>
<linearGradient id="paint0_linear_1468_214" x1="25" y1="0" x2="25" y2="45" gradientUnits="userSpaceOnUse">
<stop stop-color="#2BD984"/>
<stop offset="1" stop-color="#3CF4C8" stop-opacity="0.8"/>
</linearGradient>
</defs>
</svg>
