<svg width="51" height="45" viewBox="0 0 51 45" fill="none" xmlns="http://www.w3.org/2000/svg">
<path d="M46.9286 0H3.59861C1.61317 0 0 1.45647 0 3.24442V41.7556C0 43.5435 1.61317 45 3.59861 45H46.9286C48.914 45 50.5385 43.5435 50.5385 41.7556V3.24442C50.5385 1.45647 48.914 0 46.9286 0ZM15.2743 38.5714H7.78383V17.096H15.2856V38.5714H15.2743ZM11.5291 14.1629C9.12625 14.1629 7.18594 12.4252 7.18594 10.2958C7.18594 8.16629 9.12625 6.42857 11.5291 6.42857C13.9206 6.42857 15.8722 8.16629 15.8722 10.2958C15.8722 12.4353 13.9319 14.1629 11.5291 14.1629ZM43.3525 38.5714H35.862V28.125C35.862 25.6339 35.8056 22.4297 31.9701 22.4297C28.0669 22.4297 27.469 25.1417 27.469 27.9442V38.5714H19.9785V17.096H27.1644V20.029H27.2659C28.27 18.3415 30.7179 16.5636 34.3616 16.5636C41.9424 16.5636 43.3525 21.0134 43.3525 26.7991V38.5714Z" fill="url(#paint0_linear_1457_99)"/>
<defs>
<linearGradient id="paint0_linear_1457_99" x1="25.2692" y1="0" x2="25.2692" y2="45" gradientUnits="userSpaceOnUse">
<stop stop-color="#2BD984"/>
<stop offset="1" stop-color="#3CF4C8" stop-opacity="0.8"/>
</linearGradient>
</defs>
</svg>
