<svg width="383" height="366" viewBox="0 0 383 366" fill="none" xmlns="http://www.w3.org/2000/svg">
<g clip-path="url(#clip0_1411_185)">
<path d="M382.785 76.5143C355.604 99.0386 319.598 113.49 282.614 116.956C278.985 117.298 275.346 117.532 271.699 117.659C270.889 117.689 270.079 117.707 269.263 117.725C267.941 117.755 266.612 117.767 265.29 117.767C263.704 117.767 262.119 117.747 260.533 117.707C251.356 117.468 242.215 116.579 233.197 115.046C232.866 114.986 232.542 114.932 232.212 114.872C230.788 114.625 229.369 114.361 227.955 114.079C225.243 113.544 222.544 112.952 219.859 112.301C218.989 112.091 218.119 111.874 217.248 111.646C216 111.328 214.759 110.991 213.517 110.649C213.052 110.517 212.586 110.391 212.121 110.253C211.649 110.12 211.176 109.982 210.704 109.838C207.824 108.997 204.968 108.084 202.136 107.099C186.012 101.553 170.917 93.8768 157.36 84.3287C155.485 83.0013 153.582 81.6078 151.747 80.2563C141.884 73.0125 131.683 65.5225 119.25 63.8887C105.824 62.1288 92.9252 67.5707 80.4578 72.8323C76.2278 74.6163 71.8561 76.4602 67.5317 78.0039C46.4215 85.4072 23.1564 86.3975 1.34928 80.8209C0.897274 80.7128 0.445264 80.5927 0 80.4726V79.2172C0.445264 79.3374 0.897274 79.4575 1.34928 79.5716C22.9736 85.1763 46.0759 84.2319 67.0324 76.8867C71.3164 75.3611 75.6746 73.5231 79.8844 71.7452C92.5339 66.4054 105.615 60.8855 119.445 62.6994C132.25 64.3812 142.599 71.9794 152.604 79.3313C154.439 80.6768 156.335 82.0703 158.197 83.3917C171.664 92.8786 186.661 100.503 202.683 106.006H202.689C205.402 106.943 208.147 107.826 210.907 108.643C211.305 108.757 211.703 108.871 212.101 108.991C212.546 109.117 212.998 109.244 213.443 109.37C214.583 109.694 215.726 110.002 216.87 110.295C217.99 110.595 219.117 110.879 220.25 111.148H220.257C223.158 111.85 226.077 112.485 229.014 113.052C230.343 113.316 231.672 113.556 233.015 113.784C233.305 113.838 233.602 113.887 233.898 113.935C242.55 115.388 251.315 116.244 260.115 116.493H260.122C263.178 116.577 266.23 116.587 269.277 116.523C270.073 116.505 270.862 116.481 271.651 116.457C275.099 116.337 278.542 116.121 281.98 115.809H281.987C318.856 112.451 354.774 98.0835 381.868 75.6314C381.999 75.5238 382.174 75.4671 382.352 75.4736C382.531 75.4801 382.699 75.5493 382.82 75.6661C382.942 75.7828 383.006 75.9376 383 76.0966C382.993 76.2556 382.916 76.4058 382.785 76.5143H382.785Z" fill="#B2ADF8"/>
<path d="M-15.0616 141.17C12.1198 163.694 48.1254 178.146 85.1093 181.612C88.7388 181.954 92.3774 182.188 96.025 182.314C96.8346 182.344 97.6441 182.362 98.4604 182.38C99.7828 182.41 101.112 182.422 102.434 182.422C104.02 182.422 105.605 182.402 107.19 182.362C116.367 182.124 125.509 181.234 134.527 179.702C134.857 179.641 135.181 179.587 135.512 179.527C136.935 179.281 138.354 179.017 139.769 178.735C142.481 178.2 145.179 177.607 147.864 176.957C148.735 176.746 149.605 176.53 150.475 176.302C151.723 175.984 152.965 175.647 154.206 175.305C154.672 175.173 155.137 175.047 155.603 174.908C156.075 174.776 156.547 174.638 157.019 174.494C159.9 173.653 162.756 172.74 165.587 171.755C181.712 166.209 196.806 158.533 210.363 148.984C212.239 147.657 214.141 146.264 215.976 144.912C225.84 137.668 236.04 130.178 248.474 128.544C261.899 126.785 274.798 132.226 287.266 137.488C291.496 139.272 295.867 141.116 300.192 142.66C321.302 150.063 344.567 151.053 366.374 145.477C366.826 145.369 367.278 145.248 367.724 145.128V143.873C367.278 143.993 366.826 144.113 366.374 144.227C344.75 149.832 321.648 148.888 300.691 141.542C296.407 140.017 292.049 138.179 287.839 136.401C275.19 131.061 262.108 125.541 248.278 127.355C235.474 129.037 225.125 136.635 215.12 143.987C213.285 145.333 211.389 146.726 209.527 148.047C196.06 157.534 181.062 165.158 165.041 170.662H165.034C162.322 171.599 159.576 172.482 156.817 173.299C156.419 173.413 156.021 173.527 155.623 173.647C155.178 173.773 154.726 173.899 154.28 174.025C153.14 174.35 151.998 174.658 150.853 174.95C149.733 175.251 148.607 175.535 147.473 175.803H147.466C144.565 176.506 141.646 177.141 138.71 177.707C137.381 177.972 136.052 178.212 134.709 178.44C134.419 178.494 134.122 178.542 133.825 178.59C125.174 180.044 116.409 180.899 107.609 181.149H107.602C104.546 181.233 101.494 181.243 98.447 181.179C97.6509 181.161 96.8616 181.137 96.0722 181.113C92.6248 180.993 89.1819 180.777 85.7435 180.464H85.7367C48.8675 177.107 12.9496 162.739 -14.1441 140.287C-14.2757 140.18 -14.4499 140.123 -14.6284 140.129C-14.807 140.136 -14.9754 140.205 -15.0967 140.322C-15.218 140.439 -15.2825 140.593 -15.2759 140.752C-15.2693 140.911 -15.1923 141.062 -15.0616 141.17H-15.0616Z" fill="#B2ADF8"/>
<path d="M374.894 130.648C355.189 160.644 324.803 185.676 290.425 200.514C287.052 201.973 283.64 203.331 280.189 204.588C279.424 204.869 278.655 205.139 277.88 205.41C276.625 205.851 275.358 206.277 274.094 206.689C272.579 207.183 271.059 207.658 269.532 208.114C260.696 210.746 251.713 212.745 242.668 214.09C242.335 214.136 242.011 214.185 241.678 214.231C240.249 214.439 238.82 214.629 237.389 214.8C234.649 215.134 231.905 215.409 229.158 215.624C228.267 215.694 227.376 215.759 226.48 215.812C225.199 215.897 223.919 215.962 222.638 216.022C222.156 216.041 221.676 216.065 221.193 216.078C220.705 216.099 220.215 216.114 219.723 216.124C216.736 216.218 213.753 216.236 210.773 216.177C193.82 215.902 177.258 213.27 161.645 208.371C159.483 207.687 157.277 206.948 155.147 206.228C143.705 202.38 131.872 198.401 119.535 200.715C106.215 203.217 95.4034 212.438 84.9537 221.352C81.4079 224.375 77.7435 227.499 74.0406 230.322C55.9277 243.976 33.9703 252.173 11.5782 253.64C11.1162 253.678 10.6508 253.704 10.1918 253.728L9.8424 252.528C10.3014 252.504 10.7668 252.478 11.2305 252.447C33.4557 251.063 55.2702 242.961 73.2525 229.41C76.9217 226.617 80.575 223.502 84.1031 220.491C94.7051 211.446 105.669 202.094 119.391 199.517C132.096 197.134 144.101 201.17 155.709 205.077C157.837 205.791 160.036 206.532 162.183 207.215C177.694 212.084 194.148 214.695 210.991 214.962L210.997 214.959C213.85 215.01 216.72 214.998 219.584 214.918C219.996 214.903 220.408 214.888 220.822 214.879C221.283 214.861 221.75 214.841 222.211 214.822C223.39 214.777 224.568 214.716 225.743 214.638C226.897 214.576 228.053 214.497 229.211 214.4L229.217 214.398C232.185 214.165 235.151 213.862 238.115 213.488C239.459 213.327 240.796 213.142 242.143 212.942C242.435 212.903 242.732 212.856 243.029 212.81C251.701 211.503 260.316 209.589 268.795 207.085L268.801 207.082C271.745 206.21 274.664 205.269 277.558 204.258C278.314 203.993 279.062 203.724 279.809 203.455C283.07 202.265 286.3 200.986 289.499 199.616L289.506 199.614C323.805 184.914 354.13 159.99 373.772 130.09C373.868 129.946 374.018 129.838 374.191 129.788C374.363 129.739 374.543 129.753 374.692 129.827C374.84 129.9 374.945 130.028 374.983 130.182C375.021 130.336 374.989 130.504 374.895 130.648L374.894 130.648Z" fill="#B2ADF8"/>
<path d="M6.07032 72.9266C6.18122 71.8597 5.71145 70.9276 5.02106 70.8446C4.33068 70.7617 3.68112 71.5594 3.57023 72.6263C3.45934 73.6932 3.92911 74.6253 4.61949 74.7083C5.30987 74.7912 5.95943 73.9935 6.07032 72.9266Z" fill="#3F3D56"/>
<path d="M279.076 173.414C279.346 172.268 278.324 171.001 276.792 170.584C275.26 170.167 273.8 170.757 273.53 171.902C273.26 173.048 274.282 174.315 275.814 174.732C277.346 175.149 278.806 174.559 279.076 173.414Z" fill="white"/>
<path d="M260.372 173.284C260.642 172.139 259.619 170.872 258.088 170.455C256.556 170.037 255.095 170.628 254.825 171.773C254.555 172.919 255.578 174.185 257.11 174.603C258.641 175.02 260.102 174.43 260.372 173.284Z" fill="#3F3D56"/>
<path d="M282.586 190.097C282.856 188.951 281.834 187.684 280.302 187.267C278.77 186.85 277.31 187.44 277.04 188.586C276.77 189.731 277.792 190.998 279.324 191.415C280.856 191.833 282.316 191.242 282.586 190.097Z" fill="#FF6584"/>
<path d="M286.946 196.388C287.057 195.321 286.588 194.388 285.897 194.306C285.207 194.223 284.557 195.02 284.446 196.087C284.336 197.154 284.805 198.086 285.496 198.169C286.186 198.252 286.836 197.454 286.946 196.388Z" fill="#E6E6E6"/>
<path d="M288.484 208.988C288.595 207.921 288.126 206.989 287.435 206.906C286.745 206.823 286.095 207.621 285.984 208.688C285.873 209.755 286.343 210.687 287.034 210.77C287.724 210.853 288.374 210.055 288.484 208.988Z" fill="#3F3D56"/>
<path d="M269.362 184.975C269.473 183.908 269.003 182.976 268.313 182.893C267.622 182.81 266.973 183.608 266.862 184.675C266.751 185.742 267.221 186.674 267.911 186.757C268.602 186.84 269.251 186.042 269.362 184.975Z" fill="#E6E6E6"/>
<path d="M278.775 181.173C278.886 180.106 278.416 179.174 277.726 179.091C277.035 179.008 276.386 179.806 276.275 180.873C276.164 181.94 276.634 182.872 277.324 182.955C278.014 183.038 278.664 182.24 278.775 181.173Z" fill="#FF6584"/>
<path d="M267.179 170.902C267.289 169.835 266.82 168.903 266.129 168.82C265.439 168.737 264.789 169.535 264.678 170.602C264.568 171.669 265.037 172.601 265.728 172.684C266.418 172.767 267.068 171.969 267.179 170.902Z" fill="#3F3D56"/>
<path d="M37.0198 68.1732C37.1307 67.1063 36.661 66.1741 35.9706 66.0912C35.2802 66.0083 34.6306 66.8059 34.5198 67.8729C34.4089 68.9398 34.8786 69.8719 35.569 69.9548C36.2594 70.0378 36.9089 69.2401 37.0198 68.1732Z" fill="#3F3D56"/>
<path d="M87.5278 117.7C88.7487 117.7 89.7385 116.635 89.7385 115.323C89.7385 114.01 88.7487 112.946 87.5278 112.946C86.3069 112.946 85.3171 114.01 85.3171 115.323C85.3171 116.635 86.3069 117.7 87.5278 117.7Z" fill="white"/>
<path d="M33.3662 140.278C33.9767 140.278 34.4715 139.745 34.4715 139.089C34.4715 138.433 33.9767 137.901 33.3662 137.901C32.7557 137.901 32.2609 138.433 32.2609 139.089C32.2609 139.745 32.7557 140.278 33.3662 140.278Z" fill="white"/>
<path d="M252.776 228.807C253.386 228.807 253.881 228.275 253.881 227.618C253.881 226.962 253.386 226.43 252.776 226.43C252.166 226.43 251.671 226.962 251.671 227.618C251.671 228.275 252.166 228.807 252.776 228.807Z" fill="white"/>
<path d="M110.187 174.144C110.798 174.144 111.293 173.612 111.293 172.956C111.293 172.3 110.798 171.768 110.187 171.768C109.577 171.768 109.082 172.3 109.082 172.956C109.082 173.612 109.577 174.144 110.187 174.144Z" fill="white"/>
<path d="M130.083 49.9655C130.694 49.9655 131.189 49.4335 131.189 48.7772C131.189 48.1209 130.694 47.5889 130.083 47.5889C129.473 47.5889 128.978 48.1209 128.978 48.7772C128.978 49.4335 129.473 49.9655 130.083 49.9655Z" fill="white"/>
<path d="M310.806 95.7155C311.417 95.7155 311.912 95.1835 311.912 94.5272C311.912 93.8709 311.417 93.3389 310.806 93.3389C310.196 93.3389 309.701 93.8709 309.701 94.5272C309.701 95.1835 310.196 95.7155 310.806 95.7155Z" fill="white"/>
<path d="M254.987 27.9818C256.208 27.9818 257.197 26.9177 257.197 25.6051C257.197 24.2926 256.208 23.2285 254.987 23.2285C253.766 23.2285 252.776 24.2926 252.776 25.6051C252.776 26.9177 253.766 27.9818 254.987 27.9818Z" fill="white"/>
<path d="M383.498 342.177H382.392C382.392 335.32 376.418 328.612 364.63 322.237C353.095 315.998 336.56 310.39 315.492 305.571C312.375 304.858 309.186 304.169 305.925 303.503C289.058 300.057 270.317 297.235 250.244 295.09C246.093 294.644 241.884 294.231 237.615 293.848C236.233 293.718 234.841 293.599 233.442 293.474C229.557 293.147 225.631 292.842 221.665 292.559C200.962 291.086 179.226 290.283 156.975 290.2C155.665 290.188 154.35 290.188 153.035 290.188C124.058 290.188 117.515 293.129 117.128 295.601C116.138 301.852 149.652 314.406 182.061 326.557C217.935 339.996 254.803 353.816 267.36 365.587C267.785 365.985 268.183 366.383 268.554 366.775H267.034C266.63 366.383 266.194 365.985 265.729 365.587C252.471 354.203 215.282 340.264 181.696 327.674C140.279 312.154 114.95 302.291 116.033 295.399C116.503 292.416 121.135 289 153.035 289C154.079 289 155.129 289 156.174 289.006C178.419 289.071 200.155 289.856 220.88 291.317C224.931 291.596 228.942 291.905 232.912 292.244C234.388 292.369 235.858 292.494 237.322 292.63C241.699 293.022 246.019 293.446 250.282 293.902C270.886 296.1 290.102 299.012 307.334 302.582C310.186 303.177 312.983 303.787 315.724 304.412C359.429 314.406 383.498 327.816 383.498 342.177Z" fill="#E6E6E6"/>
<path d="M0.118648 324.979L1.21989 325.075C1.81044 318.244 8.34036 312.075 20.6341 306.739C32.6628 301.517 49.6203 297.353 71.0248 294.367C74.1917 293.925 77.4281 293.513 80.734 293.131C97.8356 291.15 116.75 289.953 136.933 289.545C141.107 289.458 145.336 289.408 149.622 289.395C151.01 289.384 152.407 289.386 153.811 289.382C157.71 289.391 161.648 289.425 165.624 289.484C186.377 289.8 208.101 290.873 230.276 292.706C231.582 292.807 232.893 292.92 234.203 293.034C263.072 295.529 269.338 299.023 269.51 301.519C269.958 307.831 235.487 317.453 202.152 326.767C165.254 337.067 127.333 347.66 113.809 358.305C113.351 358.665 112.92 359.027 112.517 359.386L114.031 359.517C114.467 359.161 114.936 358.802 115.433 358.446C129.623 348.246 167.874 337.562 202.42 327.911C245.019 316.017 271.104 308.372 270.618 301.412C270.407 298.4 266.087 294.597 234.306 291.85C233.265 291.76 232.219 291.669 231.178 291.585C209.01 289.735 187.286 288.644 166.512 288.315C162.452 288.244 158.43 288.207 154.446 288.202C152.965 288.199 151.489 288.197 150.018 288.207C145.624 288.221 141.283 288.271 136.997 288.357C116.281 288.773 96.885 290.019 79.4093 292.092C76.5169 292.438 73.6783 292.805 70.8933 293.193C26.4899 299.385 1.35553 310.672 0.118648 324.979Z" fill="#E6E6E6"/>
<path d="M336.782 338.537H335.676C335.676 333.463 316.395 328.031 287.691 328.031C258.988 328.031 239.706 333.463 239.706 338.537H238.601C238.601 331.217 263.56 326.842 287.691 326.842C311.822 326.842 336.782 331.217 336.782 338.537Z" fill="#E6E6E6"/>
<path d="M122.181 339.695H121.076C121.076 334.621 101.794 329.188 73.0904 329.188C44.387 329.188 25.1053 334.621 25.1053 339.695H24C24 332.374 48.9597 328 73.0904 328C97.2212 328 122.181 332.374 122.181 339.695Z" fill="#E6E6E6"/>
<path d="M317.495 341.993H316.39C316.39 339.128 304.67 335.934 287.852 335.934C271.034 335.934 259.314 339.128 259.314 341.993H258.208C258.208 337.286 273.481 334.746 287.852 334.746C302.222 334.746 317.495 337.286 317.495 341.993Z" fill="#E6E6E6"/>
<path d="M102.895 343.151H101.789C101.789 340.285 90.0691 337.092 73.2513 337.092C56.4335 337.092 44.7132 340.285 44.7132 343.151H43.6079C43.6079 338.444 58.8808 335.903 73.2513 335.903C87.6218 335.903 102.895 338.444 102.895 343.151Z" fill="#E6E6E6"/>
<path d="M199.167 79.6736C211.376 79.6736 221.274 69.0331 221.274 55.9073C221.274 42.7816 211.376 32.1411 199.167 32.1411C186.958 32.1411 177.06 42.7816 177.06 55.9073C177.06 69.0331 186.958 79.6736 199.167 79.6736Z" fill="#F2F2F2"/>
<path d="M195.851 81.4558C208.06 81.4558 217.958 70.8153 217.958 57.6896C217.958 44.5638 208.06 33.9233 195.851 33.9233C183.642 33.9233 173.744 44.5638 173.744 57.6896C173.744 70.8153 183.642 81.4558 195.851 81.4558Z" fill="#F2F2F2"/>
<path d="M220.168 317.897L199.447 317.896V317.615C199.448 315.315 200.297 313.11 201.81 311.484C203.322 309.858 205.374 308.945 207.513 308.944H207.513L211.298 305.857L218.36 308.945L220.169 308.945L220.168 317.897Z" fill="#F2F2F2"/>
<path d="M210.522 305.866L192.819 317.442L192.683 317.201C191.571 315.236 191.231 312.878 191.737 310.643C192.244 308.409 193.555 306.483 195.382 305.288L195.382 305.287L197.124 300.535L204.65 299.228L206.195 298.217L210.522 305.866Z" fill="#F2F2F2"/>
<path d="M222.694 242.751C222.6 243.464 222.462 245.889 222.302 249.418C221.523 266.53 220.169 309.612 220.169 309.612L211.729 306.79C211.729 306.79 201.693 274.242 203.351 256.417L202.157 250.214L200.112 239.614V239.608L193.884 207.328C193.884 207.328 192.518 216.074 192.408 218.124C192.297 220.174 191.192 220.768 190.639 220.768C187.871 220.768 188.722 220.239 189.125 223.18C189.418 225.295 187.019 237.422 185.649 244.053C185.118 246.631 184.742 248.378 184.742 248.378L187.086 253.809L206.512 298.846L199.167 303.076L169.865 256.387L166.974 251.783L166.355 246.619L161.481 205.997C161.481 205.997 159.961 201.404 161.481 201.285C163.006 201.161 163.868 201.677 163.437 199.937C163.006 198.19 171.849 169.076 171.849 169.076L217.72 179.771C217.72 179.771 222.241 189.432 220.484 194.031C218.721 198.629 221.926 234.243 220.097 235.824C218.273 237.404 217.096 236.139 219.616 238.854C220.001 239.286 220.456 239.641 220.959 239.9C222.517 240.66 223.136 239.424 222.694 242.751Z" fill="#F2F2F2"/>
<path d="M195.707 72.4965C202.745 72.4965 208.45 66.3634 208.45 58.7978C208.45 51.2322 202.745 45.0991 195.707 45.0991C188.67 45.0991 182.965 51.2322 182.965 58.7978C182.965 66.3634 188.67 72.4965 195.707 72.4965Z" fill="#E1A273"/>
<path d="M205.637 70.5954L200.586 71.6352C200.586 71.6352 205.283 63.4834 205.007 59.7521C204.731 56.0208 200.95 54.6839 200.95 54.6839C200.95 54.6839 198.856 55.1711 196.651 55.4444C196.387 54.645 196.044 53.8782 195.628 53.1569C195.546 54.088 195.163 54.9586 194.545 55.6168C193.737 55.6914 192.923 55.5903 192.152 55.3197C191.279 54.8919 191.295 54.1492 191.583 53.454C188.737 53.7065 185.959 54.5266 183.392 55.8722C183.265 54.0481 183.33 52.2144 183.586 50.406C183.707 50.3704 183.829 50.3288 183.95 50.2872C184.704 50.031 185.43 49.6904 186.117 49.2712C185.352 49.1621 184.638 48.8009 184.072 48.2373C184.536 46.7757 185.277 45.5102 186.443 44.8922C187.568 44.3007 188.798 43.976 190.05 43.9401C191.302 43.9042 192.547 44.158 193.699 44.6843C193.699 44.6843 190.997 42.5631 191.992 41.6957C192.058 41.767 192.124 41.8323 192.196 41.8977C192.29 41.9808 192.395 42.07 192.495 42.1532C193.108 42.6879 194.025 41.9333 194.147 41.1253C194.16 41.0232 194.179 40.9221 194.202 40.8223C194.219 40.7391 194.241 40.6559 194.263 40.5787C194.282 40.5101 194.304 40.4427 194.329 40.3767C196.17 39.9013 201.735 41.8323 203.874 46.0865C203.874 46.0865 218.824 53.8105 205.637 70.5954Z" fill="#0C0C0F"/>
<path d="M201.021 192.73C200.837 191.362 201.157 189.97 201.912 188.851C202.668 187.732 203.8 186.974 205.067 186.739C205.325 186.695 205.587 186.675 205.848 186.678L219.171 153.416L228.311 160.793L210.516 192.303C210.421 193.468 209.97 194.566 209.234 195.426C208.497 196.286 207.517 196.86 206.445 197.058C205.834 197.165 205.21 197.141 204.608 196.988C204.005 196.835 203.437 196.556 202.935 196.166C202.433 195.777 202.008 195.286 201.683 194.72C201.357 194.154 201.139 193.524 201.04 192.868C201.033 192.822 201.027 192.776 201.021 192.73Z" fill="#2BD984"/>
<path d="M163.699 195.441C164.596 194.45 165.097 193.122 165.096 191.739C165.096 190.356 164.593 189.028 163.696 188.038C163.511 187.84 163.31 187.658 163.097 187.495L170.478 152.161L159.05 152.363L156.246 189.103C155.687 190.106 155.452 191.279 155.579 192.44C155.705 193.601 156.185 194.685 156.945 195.521C157.381 195.993 157.9 196.368 158.471 196.624C159.042 196.88 159.654 197.013 160.273 197.015C160.892 197.017 161.505 196.887 162.077 196.635C162.649 196.382 163.17 196.01 163.608 195.541C163.639 195.508 163.669 195.475 163.699 195.441Z" fill="#2BD984"/>
<path d="M237.34 136.291C235.682 138.667 233.471 135.988 235.682 139.41C237.202 141.763 228.492 163.818 222.915 177.329C220.395 183.443 218.51 187.81 218.51 187.81L209.11 181.957L208.01 181.274C208.01 181.274 216.631 157.948 219.406 149.564C219.865 148.174 220.168 147.193 220.24 146.801C220.76 144.015 220.826 141.626 220.24 140.741C220.102 140.411 219.984 140.071 219.887 139.725C218.776 136.225 215.393 124.407 212.227 113.231C211.304 109.952 210.392 106.731 209.563 103.79C207.435 96.2385 205.838 90.5405 205.838 90.5405L218.549 91.1347C218.549 91.1347 218.759 91.5149 219.129 92.2042C220.014 93.844 221.826 97.2248 223.927 101.289C225.441 104.212 227.11 107.498 228.685 110.73C232.698 118.953 236.152 126.873 235.129 127.972C232.919 130.349 230.658 129 233.444 132.048C236.235 135.102 238.998 133.914 237.34 136.291Z" fill="#F2F2F2"/>
<path d="M222.14 167.888C218.824 164.359 219.437 148.275 219.437 148.275C219.437 148.275 222.737 94.2666 218.271 90.6482C215.183 88.2523 211.898 86.166 208.456 84.4155C208.257 84.3204 208.152 84.2669 208.152 84.2669L205.3 75.622L187.731 74.6416L184.663 81.0466C184.663 81.0466 184.182 81.0823 183.431 81.1951C180.623 81.611 174.024 83.0846 174.61 87.6774C175.351 93.5001 170.123 129.262 168.531 131.051C166.939 132.839 167.359 139.375 171.294 143.528C175.229 147.681 172.4 158.976 169.636 163.729C167.978 166.639 167.212 170.035 167.448 173.438C167.448 173.438 169.636 186.307 175.163 182.148C177.269 180.562 180.258 180.36 183.856 180.651C183.891 180.654 183.929 180.659 183.965 180.662L183.856 181.245C188.852 181.643 195.026 182.992 201.63 182.915L201.435 182.318C201.5 182.317 201.564 182.321 201.63 182.32C202.747 182.309 203.869 182.255 205.007 182.148C214.856 181.227 219.205 184.139 220.482 180.96C221.758 177.781 225.456 171.418 222.14 167.888Z" fill="#F2F2F2"/>
<path opacity="0.3" d="M195.851 75.5146C205.008 75.5146 212.431 67.5342 212.431 57.6899C212.431 47.8456 205.008 39.8652 195.851 39.8652C186.694 39.8652 179.271 47.8456 179.271 57.6899C179.271 67.5342 186.694 75.5146 195.851 75.5146Z" fill="#6C63FF"/>
<path d="M187.876 84.5991C187.876 84.5991 185.356 93.5946 182.421 103.975C181.498 107.242 180.531 110.647 179.592 113.956C176.524 124.717 173.728 134.413 173.468 134.799C172.882 135.685 172.954 138.073 173.468 140.86C173.573 141.418 173.335 143.593 172.888 146.712C172.302 150.806 171.357 156.522 170.351 162.356C169.55 167.02 168.71 171.756 167.986 175.79C166.853 182.053 166.007 186.622 166.007 186.622H155.506C155.506 186.622 157.479 139.262 159.69 135.845C161.901 132.423 159.69 135.102 158.032 132.726C156.374 130.349 159.137 131.537 161.923 128.484C164.708 125.435 162.453 126.784 160.243 124.408C159.425 123.528 161.254 117.925 163.885 111.217C165.112 108.104 166.51 104.747 167.892 101.515C170.749 94.8424 173.551 88.7048 174.662 86.2807C174.662 86.2747 174.667 86.2688 174.667 86.2628L175.165 85.1933L187.876 84.5991Z" fill="#F2F2F2"/>
<path d="M210.773 86.8032C199.234 91.6217 188.859 92.4523 180.376 86.8032V76.1084C190.367 82.5529 200.503 82.3767 210.773 76.1084V86.8032Z" fill="#3F3D56"/>
<path d="M219.616 155.131C201.783 159.95 185.749 160.78 172.639 155.131V144.437C188.079 150.881 203.744 150.705 219.616 144.437V155.131Z" fill="#3F3D56"/>
<path d="M222.694 242.751C222.6 243.464 222.462 245.889 222.302 249.418C215.643 250.578 208.877 250.845 202.157 250.214L200.112 239.614C206.997 240.966 214.044 241.062 220.959 239.899C222.517 240.66 223.136 239.424 222.694 242.751Z" fill="#3F3D56"/>
<path d="M187.086 253.809C181.419 255.164 175.66 256.027 169.865 256.387L166.974 251.783L166.355 246.62C172.869 246.8 179.372 245.935 185.649 244.053C185.118 246.631 184.742 248.378 184.742 248.378L187.086 253.809Z" fill="#3F3D56"/>
<path d="M188.114 102.119C188.107 102.145 188.087 102.198 188.071 102.242C188.056 102.283 188.019 102.388 187.99 102.472C187.961 102.556 187.93 102.63 187.924 102.638C187.915 102.645 187.902 102.689 187.892 102.733C187.884 102.779 187.869 102.817 187.859 102.817C187.849 102.816 187.835 102.852 187.826 102.893C187.816 102.937 187.787 103.021 187.758 103.08C187.732 103.141 187.701 103.228 187.691 103.272C187.683 103.318 187.668 103.354 187.658 103.353C187.648 103.353 187.632 103.391 187.624 103.435C187.615 103.481 187.601 103.525 187.593 103.532C187.584 103.54 187.549 103.632 187.513 103.737C187.476 103.841 187.441 103.939 187.432 103.954C187.424 103.966 187.41 104.018 187.4 104.061C187.392 104.108 187.375 104.146 187.367 104.146C187.357 104.145 187.341 104.186 187.331 104.235C187.323 104.284 187.308 104.325 187.298 104.324C187.288 104.324 187.279 104.339 187.278 104.355C187.276 104.373 187.257 104.434 187.233 104.49C187.209 104.547 187.19 104.608 187.188 104.624C187.187 104.642 187.179 104.657 187.167 104.656C187.157 104.656 187.146 104.674 187.145 104.697C187.144 104.72 187.123 104.787 187.101 104.846C187.079 104.904 187.041 105.001 187.019 105.065C186.996 105.129 186.96 105.229 186.938 105.288C186.916 105.347 186.897 105.408 186.897 105.421C186.896 105.437 186.888 105.449 186.878 105.449C186.868 105.448 186.852 105.489 186.844 105.538C186.834 105.587 186.819 105.628 186.809 105.628C186.801 105.627 186.785 105.663 186.776 105.704C186.766 105.748 186.737 105.832 186.708 105.891C186.682 105.952 186.65 106.039 186.641 106.083C186.633 106.129 186.618 106.165 186.608 106.164C186.6 106.164 186.579 106.22 186.563 106.292C186.546 106.361 186.525 106.42 186.516 106.42C186.508 106.42 186.492 106.46 186.482 106.509C186.474 106.558 186.458 106.599 186.449 106.599C186.439 106.598 186.43 106.614 186.429 106.629C186.429 106.647 186.415 106.693 186.397 106.732C186.38 106.77 186.359 106.834 186.35 106.877C186.34 106.921 186.324 106.957 186.317 106.957C186.307 106.956 186.291 106.997 186.281 107.046C186.273 107.095 186.257 107.136 186.248 107.135C186.238 107.135 186.229 107.148 186.228 107.163C186.228 107.186 186.198 107.268 186.105 107.506C186.089 107.547 186.067 107.613 186.059 107.652C186.05 107.693 186.034 107.723 186.026 107.723C186.017 107.723 186.003 107.769 185.992 107.825C185.982 107.882 185.966 107.928 185.956 107.928C185.947 107.927 185.938 107.942 185.937 107.958C185.935 107.976 185.916 108.038 185.892 108.094C185.868 108.15 185.849 108.211 185.847 108.227C185.846 108.245 185.837 108.26 185.827 108.26C185.818 108.259 185.802 108.3 185.794 108.349C185.784 108.398 185.768 108.439 185.76 108.438C185.751 108.438 185.735 108.469 185.726 108.507C185.718 108.548 185.687 108.635 185.658 108.707C185.631 108.776 185.593 108.883 185.577 108.942C185.562 109.004 185.542 109.052 185.534 109.052C185.526 109.052 185.511 109.092 185.503 109.141C185.493 109.19 185.477 109.231 185.467 109.231C185.457 109.23 185.442 109.271 185.432 109.32C185.424 109.369 185.408 109.41 185.398 109.41C185.388 109.409 185.38 109.422 185.379 109.437C185.378 109.466 185.345 109.558 185.265 109.757C185.243 109.816 185.222 109.882 185.221 109.906C185.22 109.929 185.211 109.947 185.199 109.946C185.189 109.946 185.179 109.961 185.178 109.976C185.178 109.995 185.164 110.041 185.146 110.079C185.129 110.115 185.104 110.189 185.088 110.24C185.072 110.291 185.047 110.365 185.03 110.401C185.012 110.439 184.998 110.485 184.998 110.501C184.997 110.519 184.988 110.534 184.978 110.534C184.968 110.533 184.953 110.579 184.942 110.636C184.932 110.693 184.916 110.739 184.906 110.738C184.896 110.738 184.888 110.753 184.887 110.769C184.885 110.787 184.866 110.848 184.842 110.904C184.818 110.961 184.799 111.022 184.797 111.038C184.796 111.056 184.787 111.071 184.777 111.07C184.767 111.07 184.752 111.111 184.744 111.16C184.734 111.209 184.718 111.25 184.708 111.249C184.7 111.249 184.685 111.282 184.676 111.323C184.668 111.364 184.641 111.441 184.617 111.495C184.595 111.548 184.574 111.62 184.573 111.651C184.571 111.685 184.562 111.71 184.552 111.71C184.542 111.709 184.527 111.743 184.517 111.786C184.508 111.83 184.494 111.863 184.484 111.863C184.476 111.862 184.461 111.903 184.453 111.952C184.443 112.001 184.427 112.042 184.417 112.042C184.407 112.041 184.392 112.082 184.382 112.131C184.374 112.18 184.358 112.221 184.35 112.22C184.342 112.22 184.327 112.251 184.318 112.289C184.31 112.328 184.274 112.43 184.237 112.517C184.201 112.606 184.172 112.696 184.171 112.719C184.17 112.74 184.161 112.758 184.151 112.757C184.141 112.757 184.119 112.813 184.102 112.885C184.086 112.954 184.065 113.013 184.057 113.013C184.047 113.012 184.034 113.053 184.024 113.102C184.016 113.151 184 113.192 183.99 113.192C183.98 113.191 183.972 113.206 183.971 113.222C183.97 113.24 183.957 113.286 183.939 113.324C183.922 113.363 183.901 113.427 183.891 113.47C183.882 113.514 183.866 113.55 183.856 113.549C183.846 113.549 183.838 113.561 183.837 113.577C183.837 113.59 183.816 113.657 183.79 113.723C183.765 113.789 183.729 113.884 183.711 113.932C183.693 113.981 183.665 114.05 183.649 114.086C183.632 114.121 183.611 114.188 183.602 114.232C183.594 114.278 183.576 114.316 183.566 114.316C183.556 114.315 183.541 114.361 183.532 114.418C183.522 114.475 183.508 114.521 183.5 114.521C183.49 114.52 183.477 114.553 183.467 114.597C183.458 114.638 183.444 114.674 183.434 114.674C183.426 114.673 183.411 114.714 183.403 114.763C183.393 114.812 183.377 114.853 183.367 114.852C183.359 114.852 183.342 114.89 183.334 114.934C183.324 114.98 183.311 115.024 183.302 115.031C183.284 115.049 183.145 115.435 183.116 115.548C183.102 115.602 183.084 115.645 183.074 115.645C183.066 115.644 183.051 115.685 183.041 115.734C183.033 115.783 183.017 115.824 183.007 115.824C182.999 115.823 182.984 115.864 182.974 115.913C182.966 115.962 182.95 116.003 182.94 116.002C182.93 116.002 182.922 116.017 182.921 116.033C182.92 116.051 182.907 116.097 182.889 116.135C182.872 116.173 182.851 116.237 182.841 116.281C182.832 116.325 182.816 116.361 182.808 116.36C182.798 116.36 182.783 116.401 182.773 116.45C182.765 116.498 182.749 116.539 182.739 116.539C182.729 116.539 182.721 116.551 182.72 116.567C182.72 116.58 182.699 116.641 182.677 116.7C182.653 116.761 182.625 116.84 182.618 116.879C182.608 116.918 182.593 116.948 182.585 116.948C182.577 116.947 182.562 116.988 182.554 117.037C182.544 117.086 182.528 117.127 182.518 117.127C182.51 117.126 182.494 117.172 182.484 117.229C182.474 117.286 182.458 117.332 182.45 117.331C182.44 117.331 182.427 117.364 182.417 117.408C182.408 117.449 182.394 117.485 182.384 117.484C182.376 117.484 182.361 117.525 182.353 117.574C182.343 117.623 182.327 117.664 182.317 117.663C182.309 117.663 182.292 117.701 182.284 117.745C182.274 117.791 182.261 117.835 182.252 117.842C182.244 117.85 182.21 117.942 182.174 118.046C182.14 118.151 182.097 118.274 182.08 118.32C182.062 118.364 182.048 118.412 182.047 118.428C182.047 118.443 182.038 118.456 182.028 118.456C182.018 118.455 182.003 118.496 181.995 118.545C181.985 118.594 181.969 118.635 181.959 118.634C181.949 118.634 181.934 118.675 181.924 118.724C181.916 118.773 181.9 118.814 181.89 118.813C181.88 118.813 181.872 118.828 181.871 118.844C181.87 118.862 181.857 118.908 181.839 118.946C181.822 118.984 181.801 119.048 181.791 119.092C181.782 119.136 181.766 119.171 181.758 119.171C181.748 119.171 181.733 119.211 181.723 119.26C181.715 119.309 181.699 119.35 181.691 119.35C181.681 119.349 181.661 119.408 181.644 119.478C181.627 119.55 181.607 119.606 181.599 119.606C181.591 119.605 181.578 119.638 181.568 119.682C181.559 119.723 181.545 119.759 181.535 119.759C181.527 119.758 181.512 119.799 181.504 119.848C181.494 119.897 181.478 119.938 181.468 119.937C181.46 119.937 181.444 119.983 181.434 120.04C181.424 120.096 181.408 120.143 181.398 120.142C181.388 120.142 181.38 120.157 181.379 120.172C181.376 120.191 181.358 120.252 181.334 120.308C181.309 120.364 181.291 120.426 181.288 120.441C181.288 120.459 181.279 120.475 181.269 120.474C181.259 120.474 181.242 120.512 181.232 120.556C181.224 120.602 181.204 120.663 181.189 120.691C181.174 120.719 181.153 120.781 181.143 120.827C181.134 120.871 181.12 120.909 181.11 120.909C181.1 120.908 181.087 120.944 181.077 120.988C181.067 121.031 181.047 121.095 181.029 121.134C181.012 121.172 180.998 121.218 180.997 121.233C180.997 121.252 180.988 121.267 180.978 121.266C180.968 121.266 180.953 121.307 180.945 121.356C180.935 121.405 180.919 121.446 180.909 121.445C180.899 121.445 180.884 121.486 180.874 121.535C180.866 121.584 180.85 121.624 180.842 121.624C180.832 121.624 180.819 121.657 180.809 121.701C180.8 121.742 180.784 121.783 180.774 121.79C180.763 121.8 180.754 121.825 180.753 121.849C180.752 121.875 180.734 121.934 180.71 121.982C180.688 122.03 180.661 122.11 180.653 122.156C180.644 122.2 180.626 122.238 180.618 122.238C180.608 122.237 180.593 122.278 180.583 122.327C180.575 122.376 180.559 122.417 180.549 122.416C180.539 122.416 180.531 122.429 180.53 122.444C180.529 122.467 180.496 122.559 180.404 122.792C180.387 122.835 180.373 122.889 180.372 122.912C180.371 122.936 180.362 122.953 180.35 122.953C180.34 122.953 180.33 122.965 180.329 122.981C180.328 123.009 180.254 123.209 180.208 123.31C180.191 123.346 180.17 123.413 180.16 123.459C180.153 123.503 180.137 123.541 180.127 123.541C180.119 123.54 180.104 123.581 180.096 123.63C180.086 123.679 180.07 123.72 180.06 123.719C180.052 123.719 180.037 123.755 180.027 123.799C180.017 123.842 179.997 123.906 179.979 123.944C179.962 123.983 179.948 124.029 179.947 124.044C179.947 124.062 179.938 124.078 179.928 124.077C179.918 124.077 179.902 124.118 179.895 124.167C179.885 124.216 179.869 124.256 179.859 124.256C179.851 124.256 179.834 124.294 179.826 124.34C179.816 124.384 179.8 124.427 179.792 124.435C179.786 124.442 179.75 124.54 179.714 124.652C179.677 124.765 179.641 124.862 179.633 124.869C179.627 124.877 179.611 124.92 179.601 124.964C179.594 125.01 179.576 125.049 179.568 125.048C179.558 125.048 179.542 125.089 179.533 125.138C179.525 125.187 179.509 125.228 179.499 125.227C179.489 125.227 179.481 125.239 179.48 125.255C179.479 125.278 179.445 125.37 179.354 125.603C179.337 125.646 179.323 125.7 179.322 125.721C179.321 125.744 179.314 125.764 179.306 125.769C179.296 125.771 179.265 125.845 179.236 125.93C179.206 126.014 179.164 126.132 179.141 126.191C179.117 126.249 179.099 126.311 179.098 126.324C179.097 126.339 179.089 126.352 179.077 126.351C179.067 126.351 179.056 126.369 179.055 126.392C179.055 126.415 179.034 126.482 179.012 126.541C178.932 126.74 178.898 126.832 178.897 126.86C178.896 126.876 178.888 126.888 178.878 126.888C178.868 126.888 178.852 126.929 178.844 126.977C178.835 127.026 178.819 127.067 178.809 127.067C178.801 127.067 178.786 127.1 178.776 127.141C178.768 127.182 178.741 127.259 178.717 127.312C178.695 127.366 178.674 127.438 178.673 127.469C178.672 127.502 178.663 127.528 178.653 127.527C178.643 127.527 178.628 127.563 178.618 127.604C178.608 127.648 178.595 127.681 178.585 127.68C178.577 127.68 178.561 127.721 178.553 127.77C178.544 127.819 178.528 127.86 178.518 127.859C178.508 127.859 178.492 127.9 178.482 127.949C178.475 127.998 178.459 128.038 178.451 128.038C178.441 128.038 178.428 128.071 178.418 128.115C178.408 128.156 178.393 128.197 178.382 128.204C178.372 128.214 178.363 128.237 178.362 128.258C178.361 128.289 178.568 128.302 179.859 128.356C181.339 128.417 181.357 128.418 181.369 128.366C181.376 128.338 181.389 128.315 181.399 128.315C181.408 128.316 181.417 128.296 181.418 128.27C181.419 128.246 181.433 128.195 181.451 128.157C181.468 128.119 181.489 128.055 181.498 128.011C181.508 127.967 181.524 127.931 181.532 127.932C181.542 127.932 181.557 127.891 181.567 127.842C181.575 127.793 181.591 127.753 181.599 127.753C181.607 127.753 181.622 127.723 181.629 127.682C181.639 127.643 181.659 127.576 181.677 127.536C181.748 127.36 181.78 127.267 181.793 127.193C181.802 127.149 181.816 127.113 181.826 127.114C181.834 127.114 181.849 127.073 181.859 127.024C181.867 126.975 181.883 126.934 181.893 126.935C181.903 126.935 181.918 126.889 181.927 126.832C181.937 126.776 181.951 126.73 181.961 126.73C181.971 126.73 181.979 126.718 181.98 126.702C181.98 126.687 181.994 126.638 182.012 126.595C182.03 126.549 182.065 126.454 182.092 126.385C182.117 126.314 182.148 126.237 182.159 126.214C182.172 126.189 182.181 126.155 182.182 126.142C182.182 126.127 182.203 126.065 182.225 126.007C182.249 125.945 182.276 125.866 182.284 125.827C182.294 125.789 182.309 125.758 182.317 125.759C182.325 125.759 182.34 125.718 182.348 125.669C182.358 125.62 182.374 125.579 182.384 125.58C182.396 125.58 182.405 125.557 182.406 125.529C182.407 125.5 182.427 125.434 182.451 125.383C182.476 125.329 182.496 125.265 182.497 125.242C182.498 125.216 182.507 125.196 182.519 125.196C182.529 125.197 182.544 125.156 182.554 125.107C182.562 125.058 182.578 125.017 182.586 125.017C182.594 125.018 182.609 124.987 182.616 124.949C182.626 124.907 182.647 124.841 182.664 124.8C182.726 124.644 182.788 124.457 182.789 124.419C182.79 124.395 182.799 124.377 182.811 124.378C182.821 124.378 182.836 124.338 182.846 124.289C182.854 124.24 182.87 124.199 182.878 124.199C182.888 124.2 182.903 124.164 182.911 124.117C182.921 124.071 182.937 124.017 182.948 123.994C182.959 123.974 182.988 123.897 183.012 123.828C183.039 123.757 183.075 123.66 183.093 123.611C183.111 123.563 183.135 123.501 183.146 123.478C183.159 123.453 183.168 123.42 183.169 123.399C183.17 123.381 183.188 123.327 183.212 123.279C183.234 123.23 183.261 123.151 183.269 123.105C183.278 123.061 183.294 123.023 183.304 123.023C183.312 123.023 183.327 122.983 183.335 122.934C183.345 122.885 183.361 122.844 183.369 122.844C183.379 122.845 183.393 122.798 183.403 122.742C183.411 122.685 183.427 122.639 183.439 122.639C183.449 122.64 183.464 122.599 183.474 122.55C183.482 122.501 183.498 122.46 183.508 122.461C183.516 122.461 183.531 122.42 183.541 122.371C183.549 122.322 183.565 122.281 183.575 122.282C183.583 122.282 183.599 122.239 183.609 122.185C183.619 122.133 183.633 122.084 183.639 122.077C183.66 122.057 183.775 121.722 183.776 121.68C183.777 121.66 183.786 121.642 183.798 121.642C183.808 121.643 183.824 121.602 183.833 121.553C183.841 121.504 183.857 121.463 183.865 121.464C183.875 121.464 183.89 121.428 183.898 121.382C183.908 121.336 183.924 121.282 183.935 121.259C183.946 121.239 183.975 121.162 183.999 121.093C184.026 121.021 184.062 120.924 184.08 120.876C184.098 120.827 184.122 120.766 184.133 120.743C184.146 120.717 184.156 120.682 184.156 120.663C184.157 120.645 184.177 120.586 184.199 120.533C184.223 120.479 184.251 120.403 184.258 120.361C184.268 120.32 184.283 120.287 184.293 120.288C184.303 120.288 184.312 120.27 184.312 120.25C184.314 120.216 184.703 120.227 187.695 120.35L191.075 120.49L191.078 120.428C191.079 120.394 191.067 120.331 191.053 120.292C191.039 120.25 191.027 120.195 191.028 120.169C191.029 120.146 191.022 120.124 191.012 120.124C191.002 120.124 190.99 120.071 190.986 120.006C190.981 119.941 190.969 119.889 190.961 119.888C190.951 119.888 190.939 119.836 190.936 119.771C190.93 119.706 190.918 119.653 190.908 119.653C190.898 119.652 190.887 119.6 190.881 119.535C190.878 119.47 190.866 119.417 190.858 119.417C190.85 119.417 190.836 119.362 190.827 119.291C190.808 119.15 190.716 118.718 190.688 118.652C190.677 118.626 190.671 118.584 190.672 118.561C190.671 118.535 190.658 118.467 190.638 118.409C190.618 118.351 190.605 118.278 190.605 118.244C190.606 118.213 190.599 118.187 190.589 118.187C190.577 118.186 190.565 118.134 190.56 118.069C190.556 118.004 190.544 117.951 190.536 117.951C190.526 117.95 190.516 117.903 190.51 117.846C190.505 117.789 190.493 117.741 190.483 117.741C190.473 117.741 190.466 117.712 190.467 117.676L190.47 117.611L187.893 117.504C186.475 117.446 185.325 117.388 185.337 117.378C185.349 117.368 185.367 117.333 185.376 117.297C185.386 117.261 185.402 117.209 185.413 117.181C185.424 117.153 185.453 117.071 185.48 117.002C185.56 116.785 185.594 116.698 185.614 116.645C185.625 116.617 185.646 116.545 185.662 116.483C185.678 116.424 185.696 116.376 185.704 116.376C185.712 116.376 185.728 116.335 185.736 116.287C185.746 116.238 185.761 116.197 185.769 116.197C185.779 116.197 185.795 116.157 185.803 116.108C185.813 116.059 185.828 116.018 185.838 116.018C185.85 116.019 185.859 115.998 185.86 115.972C185.863 115.949 185.882 115.883 185.906 115.826C185.93 115.77 185.949 115.704 185.952 115.678C185.953 115.655 185.961 115.634 185.973 115.635C185.983 115.635 185.999 115.594 186.009 115.545C186.017 115.496 186.032 115.455 186.04 115.456C186.05 115.456 186.064 115.423 186.073 115.382C186.081 115.341 186.108 115.264 186.132 115.21C186.154 115.157 186.175 115.085 186.176 115.054C186.177 115.02 186.186 114.995 186.198 114.995C186.208 114.996 186.224 114.955 186.234 114.906C186.242 114.857 186.257 114.816 186.267 114.816C186.275 114.817 186.291 114.776 186.301 114.727C186.309 114.678 186.324 114.637 186.334 114.638C186.344 114.638 186.353 114.623 186.354 114.605C186.354 114.589 186.368 114.543 186.386 114.505C186.403 114.467 186.424 114.403 186.433 114.359C186.443 114.315 186.456 114.279 186.466 114.28C186.474 114.28 186.49 114.239 186.498 114.19C186.508 114.141 186.523 114.101 186.533 114.101C186.545 114.101 186.554 114.081 186.555 114.055C186.556 114.032 186.574 113.97 186.598 113.922C186.62 113.874 186.646 113.789 186.656 113.735C186.666 113.683 186.681 113.64 186.689 113.64C186.699 113.641 186.715 113.6 186.723 113.551C186.733 113.502 186.748 113.461 186.758 113.462C186.768 113.462 186.784 113.421 186.794 113.372C186.802 113.323 186.817 113.282 186.825 113.283C186.835 113.283 186.849 113.247 186.859 113.204C186.868 113.16 186.889 113.096 186.906 113.058C186.924 113.02 186.938 112.968 186.939 112.942C186.94 112.919 186.95 112.899 186.96 112.899C186.972 112.9 186.981 112.887 186.982 112.871C186.982 112.856 186.996 112.807 187.014 112.764C187.098 112.554 187.162 112.36 187.164 112.311C187.165 112.282 187.176 112.259 187.185 112.26C187.197 112.26 187.206 112.245 187.207 112.227C187.209 112.211 187.228 112.15 187.252 112.094C187.276 112.038 187.295 111.976 187.297 111.958C187.298 111.943 187.309 111.927 187.318 111.928C187.33 111.928 187.339 111.908 187.34 111.882C187.341 111.859 187.355 111.807 187.373 111.769C187.39 111.731 187.411 111.667 187.42 111.623C187.43 111.58 187.446 111.544 187.454 111.544C187.463 111.545 187.479 111.504 187.489 111.455C187.497 111.406 187.513 111.365 187.521 111.365C187.53 111.366 187.546 111.328 187.556 111.284C187.564 111.237 187.584 111.176 187.599 111.148C187.614 111.12 187.635 111.054 187.643 110.999C187.653 110.948 187.669 110.904 187.679 110.905C187.689 110.905 187.704 110.864 187.714 110.816C187.722 110.767 187.738 110.726 187.748 110.726C187.756 110.726 187.771 110.686 187.781 110.637C187.789 110.588 187.805 110.547 187.815 110.547C187.823 110.548 187.838 110.504 187.848 110.453C187.858 110.399 187.879 110.34 187.895 110.322C187.91 110.305 187.923 110.271 187.924 110.251C187.925 110.23 187.934 110.194 187.947 110.169C187.958 110.146 187.989 110.067 188.014 109.998C188.041 109.926 188.076 109.834 188.094 109.788C188.112 109.745 188.126 109.699 188.126 109.686C188.127 109.675 188.14 109.634 188.158 109.596C188.175 109.558 188.196 109.494 188.206 109.45C188.215 109.407 188.229 109.371 188.239 109.371C188.247 109.372 188.262 109.331 188.27 109.282C188.28 109.233 188.296 109.192 188.304 109.192C188.314 109.193 188.329 109.152 188.337 109.103C188.347 109.054 188.363 109.013 188.373 109.013C188.381 109.014 188.396 108.968 188.407 108.911C188.417 108.854 188.433 108.808 188.441 108.809C188.451 108.809 188.466 108.768 188.476 108.719C188.484 108.67 188.5 108.629 188.508 108.63C188.518 108.63 188.531 108.597 188.541 108.556C188.548 108.515 188.575 108.438 188.599 108.385C188.621 108.331 188.642 108.259 188.643 108.228C188.645 108.194 188.654 108.169 188.666 108.169C188.676 108.17 188.691 108.129 188.701 108.08C188.709 108.031 188.725 107.99 188.735 107.991C188.743 107.991 188.758 107.95 188.768 107.901C188.776 107.852 188.792 107.811 188.802 107.812C188.812 107.812 188.82 107.797 188.821 107.779C188.822 107.763 188.835 107.717 188.853 107.679C188.87 107.641 188.891 107.577 188.901 107.533C188.91 107.489 188.924 107.453 188.934 107.454C188.942 107.454 188.957 107.413 188.965 107.364C188.975 107.315 188.991 107.275 189.001 107.275C189.013 107.275 189.022 107.255 189.023 107.229C189.023 107.206 189.044 107.142 189.068 107.088C189.092 107.037 189.112 106.979 189.113 106.963C189.114 106.945 189.127 106.899 189.145 106.861C189.162 106.822 189.183 106.758 189.193 106.715C189.202 106.671 189.216 106.635 189.226 106.636C189.234 106.636 189.249 106.595 189.257 106.546C189.267 106.497 189.283 106.456 189.293 106.457C189.303 106.457 189.318 106.416 189.328 106.367C189.336 106.318 189.352 106.278 189.362 106.278C189.372 106.278 189.388 106.232 189.396 106.176C189.406 106.119 189.42 106.073 189.43 106.073C189.438 106.074 189.453 106.033 189.463 105.984C189.471 105.935 189.487 105.894 189.497 105.894C189.507 105.895 189.515 105.882 189.516 105.867C189.518 105.823 189.635 105.526 189.654 105.517C189.662 105.512 189.671 105.489 189.672 105.466C189.675 105.44 189.693 105.376 189.717 105.32C189.742 105.264 189.76 105.192 189.764 105.158C189.765 105.127 189.774 105.101 189.784 105.102C189.794 105.102 189.807 105.079 189.814 105.051C189.821 105.023 189.836 105 189.848 105.001C189.864 105.001 189.852 105.447 189.808 106.556L189.747 108.11L190.694 108.149L191.641 108.188L191.703 106.632L191.765 105.077L194.955 105.217C197.263 105.317 198.152 105.364 198.161 105.386C198.168 105.401 198.263 105.426 198.372 105.441C198.482 105.456 198.575 105.478 198.58 105.491C198.586 105.502 198.645 105.522 198.714 105.536C198.782 105.549 198.837 105.567 198.836 105.58C198.836 105.59 198.877 105.607 198.927 105.62C198.978 105.63 199.029 105.65 199.041 105.663C199.052 105.674 199.109 105.702 199.166 105.723C199.222 105.741 199.268 105.769 199.268 105.779C199.267 105.792 199.297 105.811 199.332 105.821C199.366 105.832 199.399 105.849 199.405 105.86C199.41 105.868 199.457 105.906 199.511 105.945C199.564 105.983 199.618 106.024 199.631 106.041C199.645 106.054 199.667 106.084 199.683 106.1C199.698 106.119 199.717 106.135 199.723 106.135C199.777 106.137 200.162 106.662 200.254 106.858C200.283 106.924 200.313 106.982 200.319 106.99C200.324 106.998 200.348 107.061 200.373 107.135C200.398 107.206 200.423 107.272 200.429 107.28C200.437 107.288 200.451 107.343 200.462 107.403C200.474 107.466 200.49 107.516 200.498 107.516C200.506 107.517 200.518 107.569 200.521 107.634C200.526 107.699 200.538 107.752 200.548 107.752C200.556 107.752 200.567 107.823 200.572 107.909C200.577 107.995 200.588 108.065 200.596 108.065C200.606 108.066 200.614 108.157 200.618 108.266C200.619 108.378 200.629 108.49 200.638 108.513C200.66 108.571 200.618 109.667 200.594 109.684C200.585 109.692 200.566 109.792 200.555 109.906C200.543 110.02 200.525 110.117 200.514 110.125C200.504 110.132 200.487 110.202 200.478 110.279C200.467 110.356 200.451 110.421 200.441 110.42C200.433 110.42 200.417 110.471 200.406 110.535C200.398 110.6 200.382 110.651 200.374 110.651C200.366 110.651 200.346 110.707 200.329 110.779C200.312 110.848 200.292 110.907 200.284 110.907C200.274 110.906 200.26 110.942 200.251 110.983C200.241 111.024 200.228 111.06 200.218 111.06C200.208 111.059 200.194 111.092 200.185 111.136C200.175 111.177 200.16 111.213 200.15 111.212C200.14 111.212 200.131 111.225 200.131 111.238C200.13 111.266 199.954 111.575 199.892 111.659C199.869 111.686 199.852 111.719 199.852 111.732C199.85 111.768 199.483 112.218 199.318 112.385C199.266 112.44 199.21 112.497 199.196 112.509C199.181 112.524 199.113 112.584 199.042 112.643C198.97 112.702 198.912 112.762 198.911 112.773C198.911 112.786 198.899 112.795 198.885 112.795C198.871 112.794 198.811 112.833 198.749 112.88C198.69 112.927 198.632 112.966 198.622 112.966C198.612 112.965 198.604 112.975 198.603 112.988C198.603 113.001 198.576 113.018 198.544 113.027C198.512 113.034 198.479 113.056 198.474 113.076C198.467 113.094 198.434 113.116 198.4 113.125C198.366 113.134 198.337 113.149 198.337 113.161C198.336 113.174 198.31 113.189 198.275 113.198C198.243 113.207 198.214 113.221 198.214 113.234C198.213 113.247 198.187 113.262 198.153 113.271C198.12 113.28 198.092 113.294 198.091 113.307C198.091 113.317 198.058 113.334 198.02 113.34C197.982 113.349 197.949 113.366 197.949 113.379C197.948 113.389 197.922 113.406 197.887 113.415C197.855 113.424 197.826 113.439 197.826 113.452C197.825 113.462 197.789 113.476 197.745 113.485C197.7 113.491 197.664 113.507 197.663 113.518C197.663 113.531 197.618 113.552 197.562 113.568C197.507 113.584 197.456 113.608 197.448 113.62C197.441 113.633 197.417 113.642 197.393 113.641C197.369 113.64 197.322 113.657 197.29 113.676C197.257 113.695 197.196 113.719 197.154 113.725C197.11 113.734 197.075 113.748 197.074 113.761C197.074 113.771 197.033 113.787 196.983 113.796C196.933 113.801 196.892 113.818 196.892 113.828C196.891 113.841 196.847 113.855 196.791 113.863C196.736 113.871 196.69 113.885 196.689 113.898C196.689 113.908 196.639 113.924 196.578 113.932C196.518 113.937 196.464 113.953 196.457 113.966C196.451 113.979 196.396 113.995 196.336 114C196.276 114.008 196.225 114.024 196.225 114.034C196.224 114.045 196.146 114.065 196.049 114.079C195.951 114.093 195.864 114.113 195.852 114.123C195.841 114.133 195.765 114.148 195.686 114.155C195.606 114.162 195.54 114.175 195.539 114.188C195.539 114.198 195.466 114.213 195.378 114.217C195.29 114.224 195.214 114.239 195.207 114.252C195.201 114.262 195.116 114.276 195.016 114.283C194.918 114.289 194.836 114.304 194.835 114.317C194.835 114.33 194.792 114.338 194.74 114.336C194.687 114.334 194.624 114.339 194.598 114.346L194.554 114.36L194.512 115.518L194.472 116.673L195.583 116.732C196.418 116.777 196.7 116.802 196.718 116.826C196.731 116.845 196.79 116.86 196.852 116.865C196.912 116.868 197.011 116.885 197.07 116.897C197.13 116.913 197.272 116.947 197.387 116.975C197.502 117.001 197.608 117.034 197.626 117.048C197.643 117.061 197.706 117.082 197.768 117.095C197.831 117.108 197.88 117.128 197.88 117.138C197.879 117.151 197.925 117.169 197.978 117.181C198.033 117.194 198.077 117.211 198.076 117.224C198.076 117.235 198.115 117.255 198.164 117.264C198.214 117.277 198.253 117.297 198.252 117.312C198.252 117.325 198.268 117.336 198.287 117.337C198.305 117.338 198.345 117.355 198.374 117.377C198.403 117.399 198.452 117.424 198.485 117.436C198.519 117.448 198.546 117.467 198.545 117.48C198.545 117.493 198.555 117.504 198.566 117.504C198.576 117.505 198.635 117.536 198.694 117.574C198.752 117.613 198.809 117.644 198.819 117.644C198.831 117.645 198.838 117.655 198.838 117.671C198.837 117.684 198.858 117.703 198.886 117.715C198.913 117.723 198.935 117.743 198.934 117.755C198.934 117.768 198.945 117.779 198.961 117.78C198.977 117.781 199.002 117.797 199.016 117.813C199.029 117.832 199.064 117.865 199.091 117.884C199.118 117.906 199.162 117.947 199.191 117.979C199.218 118.011 199.258 118.057 199.281 118.079C199.446 118.236 199.837 118.807 199.872 118.941C199.877 118.965 199.892 118.986 199.904 118.987C199.914 118.987 199.924 119.003 199.923 119.024C199.922 119.044 199.933 119.078 199.946 119.097C199.959 119.116 199.981 119.171 199.993 119.216C200.005 119.263 200.024 119.303 200.034 119.303C200.044 119.304 200.051 119.32 200.05 119.335C200.052 119.353 200.065 119.416 200.085 119.474C200.104 119.532 200.118 119.595 200.119 119.61C200.119 119.628 200.126 119.644 200.138 119.645C200.148 119.645 200.16 119.687 200.166 119.737C200.17 119.786 200.182 119.833 200.19 119.842C200.2 119.85 200.21 119.902 200.215 119.959C200.221 120.017 200.233 120.069 200.241 120.077C200.25 120.085 200.262 120.156 200.264 120.234C200.269 120.312 200.281 120.377 200.289 120.378C200.297 120.378 200.307 120.474 200.31 120.594C200.313 120.711 200.325 120.823 200.338 120.844C200.366 120.895 200.304 122.425 200.273 122.448C200.26 122.457 200.24 122.578 200.226 122.718C200.213 122.855 200.196 122.968 200.186 122.968C200.178 122.968 200.161 123.042 200.15 123.135C200.14 123.228 200.123 123.303 200.113 123.302C200.105 123.302 200.091 123.359 200.08 123.431C200.069 123.5 200.053 123.565 200.044 123.572C200.034 123.579 200.018 123.631 200.008 123.687C199.998 123.744 199.982 123.79 199.972 123.79C199.962 123.789 199.953 123.812 199.952 123.841C199.951 123.869 199.932 123.933 199.908 123.987C199.886 124.04 199.844 124.145 199.815 124.219C199.788 124.291 199.758 124.352 199.75 124.351C199.742 124.351 199.729 124.381 199.721 124.417C199.712 124.456 199.694 124.499 199.679 124.52C199.62 124.598 199.605 124.625 199.591 124.674C199.582 124.705 199.563 124.735 199.547 124.742C199.53 124.75 199.516 124.767 199.515 124.783C199.514 124.801 199.489 124.844 199.457 124.881C199.407 124.942 199.365 125.005 199.307 125.098C199.298 125.111 199.246 125.168 199.188 125.223C199.132 125.278 199.063 125.348 199.04 125.378C199.015 125.411 198.986 125.435 198.974 125.435C198.962 125.434 198.943 125.449 198.935 125.467C198.902 125.528 198.412 125.853 198.356 125.85C198.344 125.85 198.334 125.86 198.333 125.875C198.333 125.888 198.296 125.908 198.252 125.914C198.208 125.922 198.171 125.936 198.171 125.947C198.17 125.957 198.138 125.974 198.097 125.982C198.057 125.989 198.009 126.005 197.99 126.017C197.947 126.046 197.697 126.106 197.494 126.134C197.406 126.149 197.319 126.168 197.302 126.183C197.282 126.2 196.172 126.165 194.106 126.085L190.939 125.962L190.992 124.599L191.046 123.239L190.099 123.2L189.152 123.161L189.041 125.946L188.931 128.733L193.325 128.907C196.71 129.041 197.727 129.073 197.758 129.051C197.781 129.034 197.895 129.018 198.015 129.012C198.133 129.009 198.23 128.995 198.23 128.982C198.231 128.969 198.265 128.96 198.307 128.96C198.429 128.965 198.93 128.866 198.965 128.834C198.978 128.824 199.034 128.808 199.093 128.8C199.149 128.792 199.197 128.776 199.198 128.765C199.198 128.755 199.243 128.739 199.299 128.731C199.353 128.722 199.404 128.706 199.412 128.694C199.419 128.681 199.439 128.672 199.457 128.672C199.475 128.673 199.518 128.657 199.549 128.637C199.579 128.618 199.636 128.597 199.674 128.588C199.713 128.582 199.745 128.565 199.746 128.554C199.746 128.544 199.779 128.527 199.817 128.521C199.855 128.512 199.888 128.495 199.888 128.483C199.889 128.467 199.905 128.457 199.925 128.458C199.943 128.459 200.006 128.433 200.061 128.399C200.119 128.367 200.176 128.339 200.19 128.339C200.202 128.34 200.214 128.33 200.214 128.317C200.215 128.304 200.244 128.287 200.276 128.278C200.31 128.269 200.337 128.255 200.337 128.242C200.338 128.231 200.362 128.214 200.393 128.205C200.423 128.198 200.453 128.182 200.46 128.174C200.473 128.151 200.539 128.102 200.604 128.066C200.633 128.049 200.668 128.022 200.682 128.004C200.697 127.987 200.723 127.972 200.739 127.973C200.755 127.973 200.768 127.966 200.768 127.953C200.769 127.943 200.816 127.903 200.872 127.861C200.929 127.822 200.975 127.78 200.975 127.77C200.976 127.759 200.99 127.75 201.006 127.75C201.02 127.751 201.042 127.736 201.051 127.718C201.06 127.698 201.085 127.673 201.103 127.661C201.23 127.578 201.876 126.805 201.915 126.69C201.919 126.675 201.945 126.64 201.97 126.612C201.995 126.582 202.021 126.539 202.03 126.513C202.037 126.49 202.053 126.47 202.063 126.471C202.073 126.471 202.088 126.443 202.096 126.407C202.105 126.371 202.12 126.343 202.13 126.344C202.142 126.344 202.151 126.326 202.152 126.306C202.152 126.288 202.166 126.26 202.18 126.25C202.205 126.23 202.233 126.177 202.338 125.937C202.373 125.861 202.408 125.792 202.416 125.785C202.422 125.777 202.438 125.739 202.445 125.7C202.455 125.662 202.47 125.631 202.48 125.632C202.49 125.632 202.499 125.617 202.499 125.599C202.502 125.583 202.52 125.522 202.545 125.466C202.569 125.41 202.587 125.348 202.59 125.33C202.591 125.314 202.599 125.299 202.609 125.3C202.619 125.3 202.637 125.262 202.644 125.218C202.654 125.172 202.668 125.128 202.676 125.121C202.697 125.101 202.815 124.693 202.817 124.636C202.818 124.608 202.827 124.577 202.84 124.57C202.85 124.562 202.867 124.498 202.877 124.429C202.888 124.356 202.902 124.3 202.912 124.3C202.92 124.301 202.937 124.231 202.948 124.146C202.96 124.061 202.974 123.991 202.984 123.992C202.992 123.992 203.01 123.91 203.022 123.812C203.033 123.711 203.049 123.623 203.057 123.619C203.067 123.611 203.083 123.516 203.096 123.405C203.106 123.296 203.124 123.183 203.135 123.155C203.231 122.917 203.337 120.28 203.259 120.085C203.25 120.061 203.24 119.96 203.236 119.856C203.232 119.752 203.221 119.668 203.213 119.668C203.205 119.668 203.194 119.602 203.189 119.524C203.186 119.446 203.175 119.376 203.165 119.368C203.156 119.36 203.144 119.299 203.139 119.237C203.135 119.172 203.123 119.119 203.115 119.119C203.105 119.119 203.095 119.072 203.089 119.014C203.084 118.957 203.072 118.91 203.064 118.909C203.054 118.909 203.041 118.864 203.035 118.812C203.025 118.718 202.914 118.358 202.885 118.331C202.877 118.323 202.865 118.284 202.86 118.245C202.854 118.205 202.841 118.174 202.831 118.173C202.821 118.173 202.814 118.157 202.814 118.136C202.815 118.116 202.805 118.081 202.791 118.063C202.778 118.044 202.758 117.999 202.745 117.962C202.717 117.873 202.684 117.804 202.646 117.745C202.627 117.719 202.612 117.689 202.613 117.676C202.614 117.648 202.415 117.321 202.273 117.118C202.111 116.883 201.876 116.603 201.84 116.602C201.832 116.601 201.811 116.58 201.794 116.553C201.749 116.484 201.678 116.413 201.652 116.412C201.638 116.412 201.625 116.393 201.618 116.372C201.613 116.351 201.595 116.332 201.577 116.331C201.561 116.331 201.548 116.317 201.549 116.304C201.549 116.288 201.538 116.278 201.522 116.277C201.506 116.276 201.48 116.26 201.467 116.241C201.435 116.198 201.118 115.975 201.088 115.974C201.074 115.973 201.063 115.962 201.063 115.949C201.064 115.936 201.038 115.917 201.005 115.905C200.973 115.894 200.946 115.877 200.947 115.864C200.947 115.854 200.916 115.834 200.878 115.825C200.841 115.813 200.81 115.793 200.81 115.783C200.811 115.77 200.775 115.753 200.732 115.741C200.688 115.731 200.653 115.712 200.654 115.699C200.654 115.686 200.619 115.666 200.575 115.654C200.532 115.642 200.493 115.625 200.487 115.612C200.482 115.598 200.442 115.581 200.399 115.569C200.356 115.557 200.316 115.537 200.311 115.526C200.305 115.513 200.258 115.493 200.207 115.481C200.155 115.471 200.104 115.448 200.093 115.437C200.081 115.423 200.002 115.394 199.919 115.375C199.836 115.354 199.769 115.328 199.77 115.317C199.77 115.304 199.751 115.296 199.727 115.295C199.659 115.292 199.592 115.261 199.593 115.235C199.594 115.222 199.606 115.212 199.62 115.212C199.632 115.21 199.681 115.192 199.726 115.165C199.771 115.138 199.819 115.119 199.834 115.117C199.845 115.118 199.858 115.108 199.858 115.093C199.859 115.08 199.892 115.063 199.93 115.054C199.968 115.048 200.001 115.031 200.001 115.021C200.002 115.008 200.03 114.993 200.063 114.984C200.097 114.975 200.123 114.961 200.124 114.948C200.124 114.935 200.153 114.92 200.185 114.911C200.22 114.902 200.246 114.888 200.247 114.875C200.247 114.865 200.272 114.848 200.304 114.838C200.334 114.829 200.41 114.786 200.474 114.739C200.538 114.692 200.601 114.656 200.613 114.657C200.625 114.657 200.635 114.645 200.636 114.632C200.636 114.616 200.649 114.606 200.665 114.607C200.681 114.608 200.707 114.593 200.722 114.576C200.759 114.538 200.817 114.491 200.883 114.452C200.936 114.423 200.944 114.416 201.025 114.336C201.052 114.309 201.087 114.287 201.103 114.288C201.117 114.288 201.136 114.271 201.142 114.25C201.151 114.23 201.168 114.213 201.184 114.213C201.2 114.214 201.229 114.192 201.248 114.164C201.269 114.136 201.294 114.114 201.304 114.114C201.313 114.115 201.343 114.087 201.37 114.052C201.397 114.017 201.426 113.99 201.434 113.99C201.444 113.99 201.476 113.958 201.503 113.915C201.533 113.875 201.566 113.842 201.58 113.84C201.592 113.841 201.654 113.781 201.717 113.708C201.78 113.638 201.872 113.531 201.922 113.476C202.008 113.378 202.193 113.142 202.341 112.938C202.375 112.89 202.405 112.839 202.405 112.826C202.406 112.813 202.429 112.778 202.458 112.745C202.488 112.713 202.511 112.68 202.511 112.672C202.512 112.659 202.596 112.51 202.619 112.482C202.635 112.462 202.681 112.373 202.71 112.304C202.725 112.269 202.742 112.236 202.751 112.228C202.757 112.221 202.792 112.147 202.827 112.063C202.862 111.978 202.897 111.905 202.905 111.897C202.912 111.89 202.927 111.851 202.935 111.813C202.944 111.774 202.959 111.744 202.969 111.744C202.979 111.745 202.995 111.698 203.003 111.642C203.014 111.585 203.027 111.539 203.037 111.539C203.045 111.54 203.061 111.499 203.071 111.45C203.079 111.401 203.094 111.36 203.104 111.36C203.112 111.361 203.128 111.32 203.138 111.271C203.146 111.222 203.162 111.173 203.172 111.169C203.18 111.161 203.197 111.102 203.207 111.04C203.216 110.976 203.232 110.917 203.242 110.912C203.25 110.905 203.267 110.843 203.277 110.776C203.286 110.709 203.303 110.642 203.311 110.63C203.32 110.614 203.343 110.493 203.362 110.359C203.379 110.225 203.404 110.094 203.415 110.068C203.426 110.043 203.449 109.82 203.467 109.57C203.483 109.321 203.505 109.112 203.515 109.104C203.538 109.087 203.549 108.818 203.527 108.799C203.518 108.791 203.513 108.557 203.518 108.279C203.523 108.002 203.519 107.753 203.51 107.726C203.499 107.7 203.487 107.557 203.479 107.406C203.473 107.255 203.46 107.122 203.45 107.106C203.443 107.093 203.432 107.017 203.427 106.942C203.422 106.869 203.41 106.806 203.402 106.806C203.394 106.806 203.383 106.746 203.378 106.675C203.373 106.602 203.361 106.545 203.351 106.544C203.341 106.544 203.334 106.523 203.335 106.497C203.336 106.474 203.324 106.419 203.31 106.377C203.295 106.337 203.283 106.29 203.284 106.272C203.282 106.256 203.269 106.196 203.249 106.138C203.229 106.08 203.216 106.017 203.215 105.999C203.215 105.984 203.208 105.968 203.198 105.967C203.188 105.967 203.175 105.93 203.169 105.888C203.163 105.844 203.152 105.81 203.144 105.809C203.136 105.809 203.12 105.764 203.11 105.707C203.098 105.652 203.077 105.591 203.062 105.573C203.046 105.554 203.034 105.522 203.034 105.504C203.035 105.483 203.028 105.467 203.016 105.467C203.006 105.466 202.996 105.453 202.997 105.44C202.998 105.409 202.923 105.248 202.901 105.234C202.892 105.228 202.886 105.207 202.887 105.186C202.888 105.166 202.875 105.142 202.859 105.133C202.844 105.125 202.827 105.093 202.822 105.067C202.809 105.002 202.762 104.927 202.51 104.569C202.287 104.248 202.175 104.109 202.137 104.107C202.123 104.107 202.111 104.096 202.112 104.085C202.113 104.059 201.832 103.783 201.804 103.782C201.792 103.782 201.785 103.771 201.785 103.755C201.786 103.742 201.764 103.723 201.737 103.712C201.709 103.703 201.688 103.684 201.689 103.671C201.689 103.658 201.68 103.647 201.668 103.647C201.64 103.646 201.427 103.504 201.417 103.478C201.411 103.467 201.382 103.448 201.352 103.439C201.323 103.427 201.299 103.408 201.3 103.395C201.3 103.382 201.265 103.363 201.222 103.353C201.178 103.341 201.143 103.324 201.143 103.311C201.144 103.301 201.113 103.281 201.075 103.269C201.038 103.26 201.006 103.241 201.007 103.23C201.007 103.22 200.976 103.2 200.938 103.191C200.901 103.179 200.846 103.154 200.817 103.132C200.788 103.11 200.745 103.09 200.723 103.089C200.699 103.088 200.673 103.076 200.664 103.063C200.643 103.039 200.539 102.998 200.3 102.923C200.219 102.899 200.138 102.867 200.121 102.856C200.105 102.843 200.03 102.824 199.959 102.811C199.885 102.797 199.826 102.777 199.827 102.766C199.827 102.756 199.744 102.734 199.645 102.72C199.543 102.705 199.456 102.684 199.451 102.673C199.445 102.66 199.32 102.636 199.173 102.623C199.026 102.606 198.893 102.577 198.878 102.561C198.859 102.539 197.413 102.469 193.488 102.302C188.345 102.082 188.126 102.075 188.114 102.119Z" fill="#2BD984"/>
</g>
<defs>
<clipPath id="clip0_1411_185">
<rect width="383" height="366" fill="white"/>
</clipPath>
</defs>
</svg>
